<mxfile host="app.diagrams.net" agent="Mozilla/5.0 (Windows NT 10.0; Win64; x64) AppleWebKit/537.36 (KHTML, like Gecko) Chrome/134.0.0.0 Safari/537.36" version="26.2.14">
  <diagram name="Trang-1" id="v8sIhxi0YVU-Ag8Na4-J">
    <mxGraphModel dx="2523" dy="1910" grid="0" gridSize="10" guides="1" tooltips="1" connect="1" arrows="1" fold="1" page="0" pageScale="1" pageWidth="1654" pageHeight="2336" math="0" shadow="0">
      <root>
        <mxCell id="0" />
        <mxCell id="1" parent="0" />
        <mxCell id="50ePsgqkP9i3H8P7-D_R-1" value="Order" style="whiteSpace=wrap;html=1;align=center;" vertex="1" parent="1">
          <mxGeometry x="2090" y="892.5" width="100" height="40" as="geometry" />
        </mxCell>
        <mxCell id="50ePsgqkP9i3H8P7-D_R-2" value="&lt;span style=&quot;font-size:12.0pt;line-height:115%;&lt;br/&gt;font-family:&amp;quot;Arial&amp;quot;,sans-serif;mso-fareast-font-family:Calibri;mso-fareast-theme-font:&lt;br/&gt;minor-latin;mso-ansi-language:EN-US;mso-fareast-language:EN-US;mso-bidi-language:&lt;br/&gt;AR-SA&quot;&gt;customs_id&amp;nbsp;&lt;/span&gt;" style="ellipse;whiteSpace=wrap;html=1;align=center;" vertex="1" parent="1">
          <mxGeometry x="2114" y="765" width="100" height="40" as="geometry" />
        </mxCell>
        <mxCell id="50ePsgqkP9i3H8P7-D_R-3" value="&lt;span style=&quot;font-size:12.0pt;line-height:115%;&lt;br/&gt;font-family:&amp;quot;Arial&amp;quot;,sans-serif;mso-fareast-font-family:Calibri;mso-fareast-theme-font:&lt;br/&gt;minor-latin;mso-ansi-language:EN-US;mso-fareast-language:EN-US;mso-bidi-language:&lt;br/&gt;AR-SA&quot;&gt;region_code&amp;nbsp;&lt;/span&gt;" style="ellipse;whiteSpace=wrap;html=1;align=center;" vertex="1" parent="1">
          <mxGeometry x="2259" y="845" width="100" height="40" as="geometry" />
        </mxCell>
        <mxCell id="50ePsgqkP9i3H8P7-D_R-4" value="&lt;span style=&quot;font-size:12.0pt;line-height:115%;&lt;br/&gt;font-family:&amp;quot;Arial&amp;quot;,sans-serif;mso-fareast-font-family:Calibri;mso-fareast-theme-font:&lt;br/&gt;minor-latin;mso-ansi-language:EN-US;mso-fareast-language:EN-US;mso-bidi-language:&lt;br/&gt;AR-SA&quot;&gt;delivery_date&amp;nbsp;&lt;/span&gt;" style="ellipse;whiteSpace=wrap;html=1;align=center;" vertex="1" parent="1">
          <mxGeometry x="2277" y="962.5" width="120" height="40" as="geometry" />
        </mxCell>
        <mxCell id="50ePsgqkP9i3H8P7-D_R-5" value="&lt;span style=&quot;font-size:12.0pt;line-height:115%;&lt;br/&gt;font-family:&amp;quot;Arial&amp;quot;,sans-serif;mso-fareast-font-family:Calibri;mso-fareast-theme-font:&lt;br/&gt;minor-latin;mso-ansi-language:EN-US;mso-fareast-language:EN-US;mso-bidi-language:&lt;br/&gt;AR-SA&quot;&gt;created_at&amp;nbsp;&lt;/span&gt;" style="ellipse;whiteSpace=wrap;html=1;align=center;" vertex="1" parent="1">
          <mxGeometry x="2207" y="1002.5" width="100" height="40" as="geometry" />
        </mxCell>
        <mxCell id="50ePsgqkP9i3H8P7-D_R-6" value="&lt;span style=&quot;font-size:12.0pt;line-height:115%;&lt;br/&gt;font-family:&amp;quot;Arial&amp;quot;,sans-serif;mso-fareast-font-family:Calibri;mso-fareast-theme-font:&lt;br/&gt;minor-latin;mso-ansi-language:EN-US;mso-fareast-language:EN-US;mso-bidi-language:&lt;br/&gt;AR-SA&quot;&gt;status&lt;/span&gt;" style="ellipse;whiteSpace=wrap;html=1;align=center;" vertex="1" parent="1">
          <mxGeometry x="1984" y="1022.5" width="100" height="40" as="geometry" />
        </mxCell>
        <mxCell id="50ePsgqkP9i3H8P7-D_R-7" value="&lt;span style=&quot;font-size:12.0pt;line-height:115%;&lt;br/&gt;font-family:&amp;quot;Arial&amp;quot;,sans-serif;mso-fareast-font-family:Calibri;mso-fareast-theme-font:&lt;br/&gt;minor-latin;mso-ansi-language:EN-US;mso-fareast-language:EN-US;mso-bidi-language:&lt;br/&gt;AR-SA&quot;&gt;station_id&amp;nbsp;&lt;/span&gt;" style="ellipse;whiteSpace=wrap;html=1;align=center;" vertex="1" parent="1">
          <mxGeometry x="1914" y="962.5" width="100" height="40" as="geometry" />
        </mxCell>
        <mxCell id="50ePsgqkP9i3H8P7-D_R-8" value="&lt;span style=&quot;font-size:12.0pt;line-height:115%;&lt;br/&gt;font-family:&amp;quot;Arial&amp;quot;,sans-serif;mso-fareast-font-family:Calibri;mso-fareast-theme-font:&lt;br/&gt;minor-latin;mso-ansi-language:EN-US;mso-fareast-language:EN-US;mso-bidi-language:&lt;br/&gt;AR-SA&quot;&gt;customer_id&amp;nbsp;&lt;/span&gt;" style="ellipse;whiteSpace=wrap;html=1;align=center;" vertex="1" parent="1">
          <mxGeometry x="1934" y="827.5" width="100" height="40" as="geometry" />
        </mxCell>
        <mxCell id="50ePsgqkP9i3H8P7-D_R-9" value="&lt;span style=&quot;font-size:12.0pt;line-height:115%;&lt;br/&gt;font-family:&amp;quot;Arial&amp;quot;,sans-serif;mso-fareast-font-family:Calibri;mso-fareast-theme-font:&lt;br/&gt;minor-latin;mso-ansi-language:EN-US;mso-fareast-language:EN-US;mso-bidi-language:&lt;br/&gt;AR-SA&quot;&gt;order_id&amp;nbsp;&lt;/span&gt;" style="ellipse;whiteSpace=wrap;html=1;align=center;fontStyle=4;" vertex="1" parent="1">
          <mxGeometry x="2014" y="782.5" width="100" height="40" as="geometry" />
        </mxCell>
        <mxCell id="50ePsgqkP9i3H8P7-D_R-10" value="" style="endArrow=none;html=1;rounded=0;exitX=1;exitY=0;exitDx=0;exitDy=0;entryX=0;entryY=1;entryDx=0;entryDy=0;" edge="1" parent="1" source="50ePsgqkP9i3H8P7-D_R-7" target="50ePsgqkP9i3H8P7-D_R-1">
          <mxGeometry width="50" height="50" relative="1" as="geometry">
            <mxPoint x="2037" y="982.5" as="sourcePoint" />
            <mxPoint x="2087" y="932.5" as="targetPoint" />
          </mxGeometry>
        </mxCell>
        <mxCell id="50ePsgqkP9i3H8P7-D_R-11" value="" style="endArrow=none;html=1;rounded=0;exitX=0.5;exitY=0;exitDx=0;exitDy=0;entryX=0.335;entryY=1.013;entryDx=0;entryDy=0;entryPerimeter=0;" edge="1" parent="1" source="50ePsgqkP9i3H8P7-D_R-6" target="50ePsgqkP9i3H8P7-D_R-1">
          <mxGeometry width="50" height="50" relative="1" as="geometry">
            <mxPoint x="2036" y="1000.5" as="sourcePoint" />
            <mxPoint x="2117" y="942.5" as="targetPoint" />
          </mxGeometry>
        </mxCell>
        <mxCell id="50ePsgqkP9i3H8P7-D_R-12" value="" style="endArrow=none;html=1;rounded=0;exitX=1;exitY=0.5;exitDx=0;exitDy=0;entryX=0;entryY=0;entryDx=0;entryDy=0;" edge="1" parent="1" source="50ePsgqkP9i3H8P7-D_R-8" target="50ePsgqkP9i3H8P7-D_R-1">
          <mxGeometry width="50" height="50" relative="1" as="geometry">
            <mxPoint x="2046" y="1010.5" as="sourcePoint" />
            <mxPoint x="2117" y="952.5" as="targetPoint" />
          </mxGeometry>
        </mxCell>
        <mxCell id="50ePsgqkP9i3H8P7-D_R-13" value="" style="endArrow=none;html=1;rounded=0;exitX=0.624;exitY=0.892;exitDx=0;exitDy=0;entryX=0.25;entryY=0;entryDx=0;entryDy=0;exitPerimeter=0;" edge="1" parent="1" source="50ePsgqkP9i3H8P7-D_R-9" target="50ePsgqkP9i3H8P7-D_R-1">
          <mxGeometry width="50" height="50" relative="1" as="geometry">
            <mxPoint x="2056" y="1020.5" as="sourcePoint" />
            <mxPoint x="2127" y="962.5" as="targetPoint" />
          </mxGeometry>
        </mxCell>
        <mxCell id="50ePsgqkP9i3H8P7-D_R-14" value="" style="endArrow=none;html=1;rounded=0;exitX=0.5;exitY=1;exitDx=0;exitDy=0;entryX=0.75;entryY=0;entryDx=0;entryDy=0;" edge="1" parent="1" source="50ePsgqkP9i3H8P7-D_R-2" target="50ePsgqkP9i3H8P7-D_R-1">
          <mxGeometry width="50" height="50" relative="1" as="geometry">
            <mxPoint x="2066" y="1030.5" as="sourcePoint" />
            <mxPoint x="2137" y="972.5" as="targetPoint" />
          </mxGeometry>
        </mxCell>
        <mxCell id="50ePsgqkP9i3H8P7-D_R-15" value="" style="endArrow=none;html=1;rounded=0;entryX=0.75;entryY=1;entryDx=0;entryDy=0;" edge="1" parent="1" source="50ePsgqkP9i3H8P7-D_R-5" target="50ePsgqkP9i3H8P7-D_R-1">
          <mxGeometry width="50" height="50" relative="1" as="geometry">
            <mxPoint x="2076" y="1040.5" as="sourcePoint" />
            <mxPoint x="2147" y="982.5" as="targetPoint" />
          </mxGeometry>
        </mxCell>
        <mxCell id="50ePsgqkP9i3H8P7-D_R-16" value="" style="endArrow=none;html=1;rounded=0;exitX=0.057;exitY=0.243;exitDx=0;exitDy=0;entryX=1;entryY=1;entryDx=0;entryDy=0;exitPerimeter=0;" edge="1" parent="1" source="50ePsgqkP9i3H8P7-D_R-4" target="50ePsgqkP9i3H8P7-D_R-1">
          <mxGeometry width="50" height="50" relative="1" as="geometry">
            <mxPoint x="2086" y="1050.5" as="sourcePoint" />
            <mxPoint x="2157" y="992.5" as="targetPoint" />
          </mxGeometry>
        </mxCell>
        <mxCell id="50ePsgqkP9i3H8P7-D_R-17" value="" style="endArrow=none;html=1;rounded=0;exitX=0.017;exitY=0.665;exitDx=0;exitDy=0;exitPerimeter=0;entryX=1;entryY=0.25;entryDx=0;entryDy=0;" edge="1" parent="1" source="50ePsgqkP9i3H8P7-D_R-3" target="50ePsgqkP9i3H8P7-D_R-1">
          <mxGeometry width="50" height="50" relative="1" as="geometry">
            <mxPoint x="2096" y="1060.5" as="sourcePoint" />
            <mxPoint x="2167" y="1002.5" as="targetPoint" />
          </mxGeometry>
        </mxCell>
        <mxCell id="50ePsgqkP9i3H8P7-D_R-18" value="Customer" style="whiteSpace=wrap;html=1;align=center;" vertex="1" parent="1">
          <mxGeometry x="2724" y="887.5" width="100" height="40" as="geometry" />
        </mxCell>
        <mxCell id="50ePsgqkP9i3H8P7-D_R-19" value="&lt;span style=&quot;font-size:12.0pt;line-height:115%;&lt;br/&gt;font-family:&amp;quot;Arial&amp;quot;,sans-serif;mso-fareast-font-family:Calibri;mso-fareast-theme-font:&lt;br/&gt;minor-latin;mso-ansi-language:EN-US;mso-fareast-language:EN-US;mso-bidi-language:&lt;br/&gt;AR-SA&quot;&gt;email&lt;/span&gt;" style="ellipse;whiteSpace=wrap;html=1;align=center;" vertex="1" parent="1">
          <mxGeometry x="2802" y="787.5" width="100" height="40" as="geometry" />
        </mxCell>
        <mxCell id="50ePsgqkP9i3H8P7-D_R-20" value="&lt;span style=&quot;font-size:12.0pt;line-height:115%;&lt;br/&gt;font-family:&amp;quot;Arial&amp;quot;,sans-serif;mso-fareast-font-family:Calibri;mso-fareast-theme-font:&lt;br/&gt;minor-latin;mso-ansi-language:EN-US;mso-fareast-language:EN-US;mso-bidi-language:&lt;br/&gt;AR-SA&quot;&gt;address&lt;/span&gt;" style="ellipse;whiteSpace=wrap;html=1;align=center;" vertex="1" parent="1">
          <mxGeometry x="2892" y="847.5" width="100" height="40" as="geometry" />
        </mxCell>
        <mxCell id="50ePsgqkP9i3H8P7-D_R-21" value="&lt;span style=&quot;font-size:12.0pt;line-height:115%;&lt;br/&gt;font-family:&amp;quot;Arial&amp;quot;,sans-serif;mso-fareast-font-family:Calibri;mso-fareast-theme-font:&lt;br/&gt;minor-latin;mso-ansi-language:EN-US;mso-fareast-language:EN-US;mso-bidi-language:&lt;br/&gt;AR-SA&quot;&gt;country_id&lt;/span&gt;" style="ellipse;whiteSpace=wrap;html=1;align=center;" vertex="1" parent="1">
          <mxGeometry x="2852" y="947.5" width="120" height="40" as="geometry" />
        </mxCell>
        <mxCell id="50ePsgqkP9i3H8P7-D_R-22" value="&lt;span style=&quot;font-size:12.0pt;line-height:115%;&lt;br/&gt;font-family:&amp;quot;Arial&amp;quot;,sans-serif;mso-fareast-font-family:Calibri;mso-fareast-theme-font:&lt;br/&gt;minor-latin;mso-ansi-language:EN-US;mso-fareast-language:EN-US;mso-bidi-language:&lt;br/&gt;AR-SA&quot;&gt;name&amp;nbsp;&lt;/span&gt;" style="ellipse;whiteSpace=wrap;html=1;align=center;" vertex="1" parent="1">
          <mxGeometry x="2585" y="855" width="100" height="40" as="geometry" />
        </mxCell>
        <mxCell id="50ePsgqkP9i3H8P7-D_R-23" value="&lt;span style=&quot;font-size:12.0pt;line-height:115%;&lt;br/&gt;font-family:&amp;quot;Arial&amp;quot;,sans-serif;mso-fareast-font-family:Calibri;mso-fareast-theme-font:&lt;br/&gt;minor-latin;mso-ansi-language:EN-US;mso-fareast-language:EN-US;mso-bidi-language:&lt;br/&gt;AR-SA&quot;&gt;customer_id&amp;nbsp;&lt;/span&gt;" style="ellipse;whiteSpace=wrap;html=1;align=center;fontStyle=4;" vertex="1" parent="1">
          <mxGeometry x="2587" y="791" width="100" height="40" as="geometry" />
        </mxCell>
        <mxCell id="50ePsgqkP9i3H8P7-D_R-24" value="" style="endArrow=none;html=1;rounded=0;exitX=1;exitY=0;exitDx=0;exitDy=0;entryX=0;entryY=1;entryDx=0;entryDy=0;" edge="1" parent="1" target="50ePsgqkP9i3H8P7-D_R-18">
          <mxGeometry width="50" height="50" relative="1" as="geometry">
            <mxPoint x="2656.3553390593274" y="973.3578643762689" as="sourcePoint" />
            <mxPoint x="2721" y="927.5" as="targetPoint" />
          </mxGeometry>
        </mxCell>
        <mxCell id="50ePsgqkP9i3H8P7-D_R-25" value="" style="endArrow=none;html=1;rounded=0;exitX=1;exitY=0.5;exitDx=0;exitDy=0;entryX=0;entryY=0.5;entryDx=0;entryDy=0;" edge="1" parent="1" source="50ePsgqkP9i3H8P7-D_R-22" target="50ePsgqkP9i3H8P7-D_R-18">
          <mxGeometry width="50" height="50" relative="1" as="geometry">
            <mxPoint x="2680" y="1005.5" as="sourcePoint" />
            <mxPoint x="2751" y="947.5" as="targetPoint" />
          </mxGeometry>
        </mxCell>
        <mxCell id="50ePsgqkP9i3H8P7-D_R-26" value="" style="endArrow=none;html=1;rounded=0;exitX=1;exitY=0.5;exitDx=0;exitDy=0;entryX=0.25;entryY=0;entryDx=0;entryDy=0;" edge="1" parent="1" source="50ePsgqkP9i3H8P7-D_R-23" target="50ePsgqkP9i3H8P7-D_R-18">
          <mxGeometry width="50" height="50" relative="1" as="geometry">
            <mxPoint x="2690" y="1015.5" as="sourcePoint" />
            <mxPoint x="2761" y="957.5" as="targetPoint" />
          </mxGeometry>
        </mxCell>
        <mxCell id="50ePsgqkP9i3H8P7-D_R-27" value="" style="endArrow=none;html=1;rounded=0;exitX=0.5;exitY=1;exitDx=0;exitDy=0;entryX=0.75;entryY=0;entryDx=0;entryDy=0;" edge="1" parent="1" source="50ePsgqkP9i3H8P7-D_R-19" target="50ePsgqkP9i3H8P7-D_R-18">
          <mxGeometry width="50" height="50" relative="1" as="geometry">
            <mxPoint x="2700" y="1025.5" as="sourcePoint" />
            <mxPoint x="2771" y="967.5" as="targetPoint" />
          </mxGeometry>
        </mxCell>
        <mxCell id="50ePsgqkP9i3H8P7-D_R-28" value="" style="endArrow=none;html=1;rounded=0;exitX=0.057;exitY=0.243;exitDx=0;exitDy=0;entryX=1;entryY=1;entryDx=0;entryDy=0;exitPerimeter=0;" edge="1" parent="1" source="50ePsgqkP9i3H8P7-D_R-21" target="50ePsgqkP9i3H8P7-D_R-18">
          <mxGeometry width="50" height="50" relative="1" as="geometry">
            <mxPoint x="2720" y="1045.5" as="sourcePoint" />
            <mxPoint x="2791" y="987.5" as="targetPoint" />
          </mxGeometry>
        </mxCell>
        <mxCell id="50ePsgqkP9i3H8P7-D_R-29" value="" style="endArrow=none;html=1;rounded=0;exitX=0.017;exitY=0.665;exitDx=0;exitDy=0;exitPerimeter=0;entryX=1;entryY=0.25;entryDx=0;entryDy=0;" edge="1" parent="1" source="50ePsgqkP9i3H8P7-D_R-20" target="50ePsgqkP9i3H8P7-D_R-18">
          <mxGeometry width="50" height="50" relative="1" as="geometry">
            <mxPoint x="2730" y="1055.5" as="sourcePoint" />
            <mxPoint x="2801" y="997.5" as="targetPoint" />
          </mxGeometry>
        </mxCell>
        <mxCell id="50ePsgqkP9i3H8P7-D_R-30" value="&lt;span style=&quot;line-height: 115%;&quot;&gt;&lt;font style=&quot;font-size: 14px;&quot;&gt;phone_number&amp;nbsp;&lt;/font&gt;&lt;/span&gt;" style="ellipse;shape=doubleEllipse;margin=3;whiteSpace=wrap;html=1;align=center;" vertex="1" parent="1">
          <mxGeometry x="2571" y="957.5" width="110" height="50" as="geometry" />
        </mxCell>
        <mxCell id="50ePsgqkP9i3H8P7-D_R-31" value="Vehicle" style="whiteSpace=wrap;html=1;align=center;" vertex="1" parent="1">
          <mxGeometry x="2677" y="1202.5" width="100" height="40" as="geometry" />
        </mxCell>
        <mxCell id="50ePsgqkP9i3H8P7-D_R-32" value="&lt;span style=&quot;font-size:12.0pt;line-height:115%;&lt;br/&gt;font-family:&amp;quot;Arial&amp;quot;,sans-serif;mso-fareast-font-family:Calibri;mso-fareast-theme-font:&lt;br/&gt;minor-latin;mso-ansi-language:EN-US;mso-fareast-language:EN-US;mso-bidi-language:&lt;br/&gt;AR-SA&quot;&gt;station_id&amp;nbsp;&lt;/span&gt;" style="ellipse;whiteSpace=wrap;html=1;align=center;" vertex="1" parent="1">
          <mxGeometry x="2754" y="1092.5" width="100" height="40" as="geometry" />
        </mxCell>
        <mxCell id="50ePsgqkP9i3H8P7-D_R-33" value="&lt;span style=&quot;font-size:12.0pt;line-height:115%;&lt;br/&gt;font-family:&amp;quot;Arial&amp;quot;,sans-serif;mso-fareast-font-family:Calibri;mso-fareast-theme-font:&lt;br/&gt;minor-latin;mso-ansi-language:EN-US;mso-fareast-language:EN-US;mso-bidi-language:&lt;br/&gt;AR-SA&quot;&gt;type&lt;/span&gt;" style="ellipse;whiteSpace=wrap;html=1;align=center;" vertex="1" parent="1">
          <mxGeometry x="2837" y="1132.5" width="100" height="40" as="geometry" />
        </mxCell>
        <mxCell id="50ePsgqkP9i3H8P7-D_R-34" value="&lt;span style=&quot;font-size:12.0pt;line-height:115%;&lt;br/&gt;font-family:&amp;quot;Arial&amp;quot;,sans-serif;mso-fareast-font-family:Calibri;mso-fareast-theme-font:&lt;br/&gt;minor-latin;mso-ansi-language:EN-US;mso-fareast-language:EN-US;mso-bidi-language:&lt;br/&gt;AR-SA&quot;&gt;capacity&lt;/span&gt;" style="ellipse;whiteSpace=wrap;html=1;align=center;" vertex="1" parent="1">
          <mxGeometry x="2864" y="1262.5" width="120" height="40" as="geometry" />
        </mxCell>
        <mxCell id="50ePsgqkP9i3H8P7-D_R-35" value="&lt;span style=&quot;font-size:12.0pt;line-height:115%;&lt;br/&gt;font-family:&amp;quot;Arial&amp;quot;,sans-serif;mso-fareast-font-family:Calibri;mso-fareast-theme-font:&lt;br/&gt;minor-latin;mso-ansi-language:EN-US;mso-fareast-language:EN-US;mso-bidi-language:&lt;br/&gt;AR-SA&quot;&gt;provider_id&amp;nbsp;&lt;/span&gt;" style="ellipse;whiteSpace=wrap;html=1;align=center;" vertex="1" parent="1">
          <mxGeometry x="2524" y="1165" width="100" height="40" as="geometry" />
        </mxCell>
        <mxCell id="50ePsgqkP9i3H8P7-D_R-36" value="&lt;span style=&quot;font-size:12.0pt;line-height:115%;&lt;br/&gt;font-family:&amp;quot;Arial&amp;quot;,sans-serif;mso-fareast-font-family:Calibri;mso-fareast-theme-font:&lt;br/&gt;minor-latin;mso-ansi-language:EN-US;mso-fareast-language:EN-US;mso-bidi-language:&lt;br/&gt;AR-SA&quot;&gt;vehicle_id&amp;nbsp;&lt;/span&gt;" style="ellipse;whiteSpace=wrap;html=1;align=center;fontStyle=4;" vertex="1" parent="1">
          <mxGeometry x="2556" y="1112.5" width="100" height="40" as="geometry" />
        </mxCell>
        <mxCell id="50ePsgqkP9i3H8P7-D_R-37" value="" style="endArrow=none;html=1;rounded=0;exitX=1;exitY=0.5;exitDx=0;exitDy=0;entryX=0;entryY=0.5;entryDx=0;entryDy=0;" edge="1" parent="1" source="50ePsgqkP9i3H8P7-D_R-35" target="50ePsgqkP9i3H8P7-D_R-31">
          <mxGeometry width="50" height="50" relative="1" as="geometry">
            <mxPoint x="2633" y="1320.5" as="sourcePoint" />
            <mxPoint x="2704" y="1262.5" as="targetPoint" />
          </mxGeometry>
        </mxCell>
        <mxCell id="50ePsgqkP9i3H8P7-D_R-38" value="" style="endArrow=none;html=1;rounded=0;exitX=1;exitY=1;exitDx=0;exitDy=0;entryX=0.25;entryY=0;entryDx=0;entryDy=0;" edge="1" parent="1" source="50ePsgqkP9i3H8P7-D_R-36" target="50ePsgqkP9i3H8P7-D_R-31">
          <mxGeometry width="50" height="50" relative="1" as="geometry">
            <mxPoint x="2643" y="1330.5" as="sourcePoint" />
            <mxPoint x="2714" y="1272.5" as="targetPoint" />
          </mxGeometry>
        </mxCell>
        <mxCell id="50ePsgqkP9i3H8P7-D_R-39" value="" style="endArrow=none;html=1;rounded=0;exitX=0.5;exitY=1;exitDx=0;exitDy=0;entryX=0.75;entryY=0;entryDx=0;entryDy=0;" edge="1" parent="1" source="50ePsgqkP9i3H8P7-D_R-32" target="50ePsgqkP9i3H8P7-D_R-31">
          <mxGeometry width="50" height="50" relative="1" as="geometry">
            <mxPoint x="2653" y="1340.5" as="sourcePoint" />
            <mxPoint x="2724" y="1282.5" as="targetPoint" />
          </mxGeometry>
        </mxCell>
        <mxCell id="50ePsgqkP9i3H8P7-D_R-40" value="" style="endArrow=none;html=1;rounded=0;exitX=0.057;exitY=0.243;exitDx=0;exitDy=0;entryX=1;entryY=1;entryDx=0;entryDy=0;exitPerimeter=0;" edge="1" parent="1" source="50ePsgqkP9i3H8P7-D_R-34" target="50ePsgqkP9i3H8P7-D_R-31">
          <mxGeometry width="50" height="50" relative="1" as="geometry">
            <mxPoint x="2673" y="1360.5" as="sourcePoint" />
            <mxPoint x="2744" y="1302.5" as="targetPoint" />
          </mxGeometry>
        </mxCell>
        <mxCell id="50ePsgqkP9i3H8P7-D_R-41" value="" style="endArrow=none;html=1;rounded=0;exitX=0.017;exitY=0.665;exitDx=0;exitDy=0;exitPerimeter=0;entryX=1;entryY=0.25;entryDx=0;entryDy=0;" edge="1" parent="1" source="50ePsgqkP9i3H8P7-D_R-33" target="50ePsgqkP9i3H8P7-D_R-31">
          <mxGeometry width="50" height="50" relative="1" as="geometry">
            <mxPoint x="2683" y="1370.5" as="sourcePoint" />
            <mxPoint x="2754" y="1312.5" as="targetPoint" />
          </mxGeometry>
        </mxCell>
        <mxCell id="50ePsgqkP9i3H8P7-D_R-42" value="&lt;span style=&quot;line-height: 115%; font-family: Arial, sans-serif;&quot;&gt;&lt;font style=&quot;font-size: 14px;&quot;&gt;registration_country_id&lt;/font&gt;&lt;/span&gt;" style="ellipse;whiteSpace=wrap;html=1;align=center;" vertex="1" parent="1">
          <mxGeometry x="2544" y="1285" width="150" height="50" as="geometry" />
        </mxCell>
        <mxCell id="50ePsgqkP9i3H8P7-D_R-43" value="Driver" style="whiteSpace=wrap;html=1;align=center;" vertex="1" parent="1">
          <mxGeometry x="2084.5" y="1497.5" width="100" height="40" as="geometry" />
        </mxCell>
        <mxCell id="50ePsgqkP9i3H8P7-D_R-44" value="&lt;span style=&quot;font-size:12.0pt;line-height:115%;&lt;br/&gt;font-family:&amp;quot;Arial&amp;quot;,sans-serif;mso-fareast-font-family:Calibri;mso-fareast-theme-font:&lt;br/&gt;minor-latin;mso-ansi-language:EN-US;mso-fareast-language:EN-US;mso-bidi-language:&lt;br/&gt;AR-SA&quot;&gt;name&lt;/span&gt;" style="ellipse;whiteSpace=wrap;html=1;align=center;" vertex="1" parent="1">
          <mxGeometry x="2226" y="1445" width="93" height="40" as="geometry" />
        </mxCell>
        <mxCell id="50ePsgqkP9i3H8P7-D_R-45" value="&lt;span style=&quot;font-size:12.0pt;line-height:115%;&lt;br/&gt;font-family:&amp;quot;Arial&amp;quot;,sans-serif;mso-fareast-font-family:Calibri;mso-fareast-theme-font:&lt;br/&gt;minor-latin;mso-ansi-language:EN-US;mso-fareast-language:EN-US;mso-bidi-language:&lt;br/&gt;AR-SA&quot;&gt;nationality_id&lt;/span&gt;" style="ellipse;whiteSpace=wrap;html=1;align=center;" vertex="1" parent="1">
          <mxGeometry x="2240.5" y="1562" width="100" height="40" as="geometry" />
        </mxCell>
        <mxCell id="50ePsgqkP9i3H8P7-D_R-46" value="&lt;span style=&quot;font-size:12.0pt;line-height:115%;&lt;br/&gt;font-family:&amp;quot;Arial&amp;quot;,sans-serif;mso-fareast-font-family:Calibri;mso-fareast-theme-font:&lt;br/&gt;minor-latin;mso-ansi-language:EN-US;mso-fareast-language:EN-US;mso-bidi-language:&lt;br/&gt;AR-SA&quot;&gt;vehicle_id&amp;nbsp;&lt;/span&gt;" style="ellipse;whiteSpace=wrap;html=1;align=center;" vertex="1" parent="1">
          <mxGeometry x="1929" y="1507.5" width="100" height="40" as="geometry" />
        </mxCell>
        <mxCell id="50ePsgqkP9i3H8P7-D_R-47" value="&lt;span style=&quot;font-size:12.0pt;line-height:115%;&lt;br/&gt;font-family:&amp;quot;Arial&amp;quot;,sans-serif;mso-fareast-font-family:Calibri;mso-fareast-theme-font:&lt;br/&gt;minor-latin;mso-ansi-language:EN-US;mso-fareast-language:EN-US;mso-bidi-language:&lt;br/&gt;AR-SA&quot;&gt;driver_id&amp;nbsp;&lt;/span&gt;" style="ellipse;whiteSpace=wrap;html=1;align=center;fontStyle=4;direction=south;" vertex="1" parent="1">
          <mxGeometry x="1924" y="1437.5" width="135" height="45" as="geometry" />
        </mxCell>
        <mxCell id="50ePsgqkP9i3H8P7-D_R-48" value="" style="endArrow=none;html=1;rounded=0;exitX=0.5;exitY=0;exitDx=0;exitDy=0;entryX=0;entryY=1;entryDx=0;entryDy=0;" edge="1" parent="1" source="50ePsgqkP9i3H8P7-D_R-53" target="50ePsgqkP9i3H8P7-D_R-43">
          <mxGeometry width="50" height="50" relative="1" as="geometry">
            <mxPoint x="2016.8553390593274" y="1605.857864376269" as="sourcePoint" />
            <mxPoint x="2081.5" y="1560" as="targetPoint" />
          </mxGeometry>
        </mxCell>
        <mxCell id="50ePsgqkP9i3H8P7-D_R-49" value="" style="endArrow=none;html=1;rounded=0;exitX=1;exitY=0.5;exitDx=0;exitDy=0;entryX=0;entryY=0.5;entryDx=0;entryDy=0;" edge="1" parent="1" source="50ePsgqkP9i3H8P7-D_R-46" target="50ePsgqkP9i3H8P7-D_R-43">
          <mxGeometry width="50" height="50" relative="1" as="geometry">
            <mxPoint x="2031.4999999999948" y="1500" as="sourcePoint" />
            <mxPoint x="2111.5" y="1580" as="targetPoint" />
          </mxGeometry>
        </mxCell>
        <mxCell id="50ePsgqkP9i3H8P7-D_R-50" value="" style="endArrow=none;html=1;rounded=0;exitX=1;exitY=0;exitDx=0;exitDy=0;entryX=0;entryY=0;entryDx=0;entryDy=0;" edge="1" parent="1" source="50ePsgqkP9i3H8P7-D_R-47" target="50ePsgqkP9i3H8P7-D_R-43">
          <mxGeometry width="50" height="50" relative="1" as="geometry">
            <mxPoint x="2060.5" y="1645.5" as="sourcePoint" />
            <mxPoint x="2131.5" y="1587.5" as="targetPoint" />
          </mxGeometry>
        </mxCell>
        <mxCell id="50ePsgqkP9i3H8P7-D_R-51" value="" style="endArrow=none;html=1;rounded=0;exitX=0;exitY=1;exitDx=0;exitDy=0;entryX=1;entryY=0.5;entryDx=0;entryDy=0;" edge="1" parent="1" source="50ePsgqkP9i3H8P7-D_R-44" target="50ePsgqkP9i3H8P7-D_R-43">
          <mxGeometry width="50" height="50" relative="1" as="geometry">
            <mxPoint x="2070.5" y="1655.5" as="sourcePoint" />
            <mxPoint x="2141.5" y="1597.5" as="targetPoint" />
          </mxGeometry>
        </mxCell>
        <mxCell id="50ePsgqkP9i3H8P7-D_R-52" value="" style="endArrow=none;html=1;rounded=0;exitX=0.071;exitY=0.213;exitDx=0;exitDy=0;exitPerimeter=0;entryX=1;entryY=1;entryDx=0;entryDy=0;" edge="1" parent="1" source="50ePsgqkP9i3H8P7-D_R-45" target="50ePsgqkP9i3H8P7-D_R-43">
          <mxGeometry width="50" height="50" relative="1" as="geometry">
            <mxPoint x="2090.5" y="1688" as="sourcePoint" />
            <mxPoint x="2161.5" y="1630" as="targetPoint" />
          </mxGeometry>
        </mxCell>
        <mxCell id="50ePsgqkP9i3H8P7-D_R-53" value="&lt;span style=&quot;line-height: 115%;&quot;&gt;&lt;font style=&quot;font-size: 14px;&quot;&gt;phone_number&amp;nbsp;&lt;/font&gt;&lt;/span&gt;" style="ellipse;shape=doubleEllipse;margin=3;whiteSpace=wrap;html=1;align=center;" vertex="1" parent="1">
          <mxGeometry x="2001.5" y="1610" width="110" height="50" as="geometry" />
        </mxCell>
        <mxCell id="50ePsgqkP9i3H8P7-D_R-54" value="Route" style="whiteSpace=wrap;html=1;align=center;" vertex="1" parent="1">
          <mxGeometry x="1543" y="1216" width="100" height="40" as="geometry" />
        </mxCell>
        <mxCell id="50ePsgqkP9i3H8P7-D_R-55" value="&lt;span style=&quot;font-size:12.0pt;line-height:115%;&lt;br/&gt;font-family:&amp;quot;Arial&amp;quot;,sans-serif;mso-fareast-font-family:Calibri;mso-fareast-theme-font:&lt;br/&gt;minor-latin;mso-ansi-language:EN-US;mso-fareast-language:EN-US;mso-bidi-language:&lt;br/&gt;AR-SA&quot;&gt;distance&lt;/span&gt;" style="ellipse;whiteSpace=wrap;html=1;align=center;" vertex="1" parent="1">
          <mxGeometry x="1700.5" y="1164" width="100" height="40" as="geometry" />
        </mxCell>
        <mxCell id="50ePsgqkP9i3H8P7-D_R-56" value="&lt;span style=&quot;font-size:12.0pt;line-height:115%;&lt;br/&gt;font-family:&amp;quot;Arial&amp;quot;,sans-serif;mso-fareast-font-family:Calibri;mso-fareast-theme-font:&lt;br/&gt;minor-latin;mso-ansi-language:EN-US;mso-fareast-language:EN-US;mso-bidi-language:&lt;br/&gt;AR-SA&quot;&gt;station_from&amp;nbsp;&lt;/span&gt;" style="ellipse;whiteSpace=wrap;html=1;align=center;" vertex="1" parent="1">
          <mxGeometry x="1383" y="1227.5" width="120" height="45" as="geometry" />
        </mxCell>
        <mxCell id="50ePsgqkP9i3H8P7-D_R-57" value="&lt;span style=&quot;font-size:12.0pt;line-height:115%;&lt;br/&gt;font-family:&amp;quot;Arial&amp;quot;,sans-serif;mso-fareast-font-family:Calibri;mso-fareast-theme-font:&lt;br/&gt;minor-latin;mso-ansi-language:EN-US;mso-fareast-language:EN-US;mso-bidi-language:&lt;br/&gt;AR-SA&quot;&gt;route_id&amp;nbsp;&lt;/span&gt;" style="ellipse;whiteSpace=wrap;html=1;align=center;fontStyle=4;" vertex="1" parent="1">
          <mxGeometry x="1390" y="1156" width="100" height="40" as="geometry" />
        </mxCell>
        <mxCell id="50ePsgqkP9i3H8P7-D_R-58" value="" style="endArrow=none;html=1;rounded=0;exitX=0;exitY=0;exitDx=0;exitDy=0;entryX=1;entryY=1;entryDx=0;entryDy=0;" edge="1" parent="1" source="50ePsgqkP9i3H8P7-D_R-62" target="50ePsgqkP9i3H8P7-D_R-54">
          <mxGeometry width="50" height="50" relative="1" as="geometry">
            <mxPoint x="1475.3553390593274" y="1301.857864376269" as="sourcePoint" />
            <mxPoint x="1540" y="1256" as="targetPoint" />
          </mxGeometry>
        </mxCell>
        <mxCell id="50ePsgqkP9i3H8P7-D_R-59" value="" style="endArrow=none;html=1;rounded=0;entryX=0;entryY=0.5;entryDx=0;entryDy=0;exitX=1;exitY=0.5;exitDx=0;exitDy=0;" edge="1" parent="1" source="50ePsgqkP9i3H8P7-D_R-56" target="50ePsgqkP9i3H8P7-D_R-54">
          <mxGeometry width="50" height="50" relative="1" as="geometry">
            <mxPoint x="1503" y="1273" as="sourcePoint" />
            <mxPoint x="1570" y="1276" as="targetPoint" />
          </mxGeometry>
        </mxCell>
        <mxCell id="50ePsgqkP9i3H8P7-D_R-60" value="" style="endArrow=none;html=1;rounded=0;exitX=1;exitY=0.5;exitDx=0;exitDy=0;entryX=0.25;entryY=0;entryDx=0;entryDy=0;" edge="1" parent="1" source="50ePsgqkP9i3H8P7-D_R-57" target="50ePsgqkP9i3H8P7-D_R-54">
          <mxGeometry width="50" height="50" relative="1" as="geometry">
            <mxPoint x="1509" y="1344" as="sourcePoint" />
            <mxPoint x="1580" y="1286" as="targetPoint" />
          </mxGeometry>
        </mxCell>
        <mxCell id="50ePsgqkP9i3H8P7-D_R-61" value="" style="endArrow=none;html=1;rounded=0;exitX=0.017;exitY=0.665;exitDx=0;exitDy=0;exitPerimeter=0;entryX=1;entryY=0.25;entryDx=0;entryDy=0;" edge="1" parent="1" source="50ePsgqkP9i3H8P7-D_R-55" target="50ePsgqkP9i3H8P7-D_R-54">
          <mxGeometry width="50" height="50" relative="1" as="geometry">
            <mxPoint x="1549" y="1384" as="sourcePoint" />
            <mxPoint x="1620" y="1326" as="targetPoint" />
          </mxGeometry>
        </mxCell>
        <mxCell id="50ePsgqkP9i3H8P7-D_R-62" value="&lt;span style=&quot;font-size:12.0pt;line-height:115%;&lt;br/&gt;font-family:&amp;quot;Arial&amp;quot;,sans-serif;mso-fareast-font-family:Calibri;mso-fareast-theme-font:&lt;br/&gt;minor-latin;mso-ansi-language:EN-US;mso-fareast-language:EN-US;mso-bidi-language:&lt;br/&gt;AR-SA&quot;&gt;estimated_time&amp;nbsp;&lt;/span&gt;" style="ellipse;whiteSpace=wrap;html=1;align=center;" vertex="1" parent="1">
          <mxGeometry x="1685" y="1276" width="135" height="50" as="geometry" />
        </mxCell>
        <mxCell id="50ePsgqkP9i3H8P7-D_R-63" value="Station" style="whiteSpace=wrap;html=1;align=center;" vertex="1" parent="1">
          <mxGeometry x="1119" y="1552" width="100" height="40" as="geometry" />
        </mxCell>
        <mxCell id="50ePsgqkP9i3H8P7-D_R-64" value="&lt;span style=&quot;font-size:12.0pt;line-height:115%;&lt;br/&gt;font-family:&amp;quot;Arial&amp;quot;,sans-serif;mso-fareast-font-family:Calibri;mso-fareast-theme-font:&lt;br/&gt;minor-latin;mso-ansi-language:EN-US;mso-fareast-language:EN-US;mso-bidi-language:&lt;br/&gt;AR-SA&quot;&gt;region_code&lt;/span&gt;" style="ellipse;whiteSpace=wrap;html=1;align=center;" vertex="1" parent="1">
          <mxGeometry x="1263" y="1515" width="100" height="40" as="geometry" />
        </mxCell>
        <mxCell id="50ePsgqkP9i3H8P7-D_R-65" value="&lt;span style=&quot;font-size:12.0pt;line-height:115%;&lt;br/&gt;font-family:&amp;quot;Arial&amp;quot;,sans-serif;mso-fareast-font-family:Calibri;mso-fareast-theme-font:&lt;br/&gt;minor-latin;mso-ansi-language:EN-US;mso-fareast-language:EN-US;mso-bidi-language:&lt;br/&gt;AR-SA&quot;&gt;station_name&amp;nbsp;&lt;/span&gt;" style="ellipse;whiteSpace=wrap;html=1;align=center;" vertex="1" parent="1">
          <mxGeometry x="968" y="1622" width="100" height="40" as="geometry" />
        </mxCell>
        <mxCell id="50ePsgqkP9i3H8P7-D_R-66" value="&lt;span style=&quot;font-size:12.0pt;line-height:115%;&lt;br/&gt;font-family:&amp;quot;Arial&amp;quot;,sans-serif;mso-fareast-font-family:Calibri;mso-fareast-theme-font:&lt;br/&gt;minor-latin;mso-ansi-language:EN-US;mso-fareast-language:EN-US;mso-bidi-language:&lt;br/&gt;AR-SA&quot;&gt;station_id&amp;nbsp;&lt;/span&gt;" style="ellipse;whiteSpace=wrap;html=1;align=center;fontStyle=4;" vertex="1" parent="1">
          <mxGeometry x="958" y="1512" width="100" height="40" as="geometry" />
        </mxCell>
        <mxCell id="50ePsgqkP9i3H8P7-D_R-67" value="" style="endArrow=none;html=1;rounded=0;exitX=1;exitY=0;exitDx=0;exitDy=0;entryX=0;entryY=1;entryDx=0;entryDy=0;" edge="1" parent="1" source="50ePsgqkP9i3H8P7-D_R-65" target="50ePsgqkP9i3H8P7-D_R-63">
          <mxGeometry width="50" height="50" relative="1" as="geometry">
            <mxPoint x="1075" y="1670" as="sourcePoint" />
            <mxPoint x="1146" y="1612" as="targetPoint" />
          </mxGeometry>
        </mxCell>
        <mxCell id="50ePsgqkP9i3H8P7-D_R-68" value="" style="endArrow=none;html=1;rounded=0;exitX=1;exitY=0.5;exitDx=0;exitDy=0;entryX=0;entryY=0;entryDx=0;entryDy=0;" edge="1" parent="1" source="50ePsgqkP9i3H8P7-D_R-66" target="50ePsgqkP9i3H8P7-D_R-63">
          <mxGeometry width="50" height="50" relative="1" as="geometry">
            <mxPoint x="1085" y="1680" as="sourcePoint" />
            <mxPoint x="1156" y="1622" as="targetPoint" />
          </mxGeometry>
        </mxCell>
        <mxCell id="50ePsgqkP9i3H8P7-D_R-69" value="" style="endArrow=none;html=1;rounded=0;exitX=0.035;exitY=0.744;exitDx=0;exitDy=0;entryX=1;entryY=0.5;entryDx=0;entryDy=0;exitPerimeter=0;" edge="1" parent="1" source="50ePsgqkP9i3H8P7-D_R-64" target="50ePsgqkP9i3H8P7-D_R-63">
          <mxGeometry width="50" height="50" relative="1" as="geometry">
            <mxPoint x="1095" y="1690" as="sourcePoint" />
            <mxPoint x="1166" y="1632" as="targetPoint" />
          </mxGeometry>
        </mxCell>
        <mxCell id="50ePsgqkP9i3H8P7-D_R-70" value="Shipment_Details" style="whiteSpace=wrap;html=1;align=center;" vertex="1" parent="1">
          <mxGeometry x="2087" y="1195" width="100" height="40" as="geometry" />
        </mxCell>
        <mxCell id="50ePsgqkP9i3H8P7-D_R-71" value="&lt;span style=&quot;font-size:12.0pt;line-height:115%;&lt;br/&gt;font-family:&amp;quot;Arial&amp;quot;,sans-serif;mso-fareast-font-family:Calibri;mso-fareast-theme-font:&lt;br/&gt;minor-latin;mso-ansi-language:EN-US;mso-fareast-language:EN-US;mso-bidi-language:&lt;br/&gt;AR-SA&quot;&gt;route_id&amp;nbsp;&lt;/span&gt;" style="ellipse;whiteSpace=wrap;html=1;align=center;" vertex="1" parent="1">
          <mxGeometry x="2194" y="1115" width="100" height="40" as="geometry" />
        </mxCell>
        <mxCell id="50ePsgqkP9i3H8P7-D_R-72" value="&lt;span style=&quot;font-size:12.0pt;line-height:115%;&lt;br/&gt;font-family:&amp;quot;Arial&amp;quot;,sans-serif;mso-fareast-font-family:Calibri;mso-fareast-theme-font:&lt;br/&gt;minor-latin;mso-ansi-language:EN-US;mso-fareast-language:EN-US;mso-bidi-language:&lt;br/&gt;AR-SA&quot;&gt;departure_time&amp;nbsp;&lt;/span&gt;" style="ellipse;whiteSpace=wrap;html=1;align=center;" vertex="1" parent="1">
          <mxGeometry x="2284" y="1155" width="140" height="40" as="geometry" />
        </mxCell>
        <mxCell id="50ePsgqkP9i3H8P7-D_R-73" value="&lt;span style=&quot;font-size:12.0pt;line-height:115%;&lt;br/&gt;font-family:&amp;quot;Arial&amp;quot;,sans-serif;mso-fareast-font-family:Calibri;mso-fareast-theme-font:&lt;br/&gt;minor-latin;mso-ansi-language:EN-US;mso-fareast-language:EN-US;mso-bidi-language:&lt;br/&gt;AR-SA&quot;&gt;order_id&amp;nbsp;&lt;/span&gt;" style="ellipse;whiteSpace=wrap;html=1;align=center;" vertex="1" parent="1">
          <mxGeometry x="1924" y="1172.5" width="100" height="40" as="geometry" />
        </mxCell>
        <mxCell id="50ePsgqkP9i3H8P7-D_R-74" value="&lt;span style=&quot;font-size:12.0pt;line-height:115%;&lt;br/&gt;font-family:&amp;quot;Arial&amp;quot;,sans-serif;mso-fareast-font-family:Calibri;mso-fareast-theme-font:&lt;br/&gt;minor-latin;mso-ansi-language:EN-US;mso-fareast-language:EN-US;mso-bidi-language:&lt;br/&gt;AR-SA&quot;&gt;shipment_id&amp;nbsp;&lt;/span&gt;" style="ellipse;whiteSpace=wrap;html=1;align=center;fontStyle=4;" vertex="1" parent="1">
          <mxGeometry x="1966" y="1125" width="100" height="40" as="geometry" />
        </mxCell>
        <mxCell id="50ePsgqkP9i3H8P7-D_R-75" value="" style="endArrow=none;html=1;rounded=0;exitX=1;exitY=0;exitDx=0;exitDy=0;entryX=0;entryY=1;entryDx=0;entryDy=0;" edge="1" parent="1" target="50ePsgqkP9i3H8P7-D_R-70">
          <mxGeometry width="50" height="50" relative="1" as="geometry">
            <mxPoint x="2019.3553390593274" y="1280.857864376269" as="sourcePoint" />
            <mxPoint x="2084" y="1235" as="targetPoint" />
          </mxGeometry>
        </mxCell>
        <mxCell id="50ePsgqkP9i3H8P7-D_R-76" value="" style="endArrow=none;html=1;rounded=0;exitX=1;exitY=0.5;exitDx=0;exitDy=0;entryX=0;entryY=0.5;entryDx=0;entryDy=0;" edge="1" parent="1" source="50ePsgqkP9i3H8P7-D_R-73" target="50ePsgqkP9i3H8P7-D_R-70">
          <mxGeometry width="50" height="50" relative="1" as="geometry">
            <mxPoint x="2043" y="1313" as="sourcePoint" />
            <mxPoint x="2114" y="1255" as="targetPoint" />
          </mxGeometry>
        </mxCell>
        <mxCell id="50ePsgqkP9i3H8P7-D_R-77" value="" style="endArrow=none;html=1;rounded=0;exitX=1;exitY=0.5;exitDx=0;exitDy=0;entryX=0.25;entryY=0;entryDx=0;entryDy=0;" edge="1" parent="1" source="50ePsgqkP9i3H8P7-D_R-74" target="50ePsgqkP9i3H8P7-D_R-70">
          <mxGeometry width="50" height="50" relative="1" as="geometry">
            <mxPoint x="2053" y="1323" as="sourcePoint" />
            <mxPoint x="2124" y="1265" as="targetPoint" />
          </mxGeometry>
        </mxCell>
        <mxCell id="50ePsgqkP9i3H8P7-D_R-78" value="" style="endArrow=none;html=1;rounded=0;exitX=0.5;exitY=1;exitDx=0;exitDy=0;entryX=0.75;entryY=0;entryDx=0;entryDy=0;" edge="1" parent="1" source="50ePsgqkP9i3H8P7-D_R-71" target="50ePsgqkP9i3H8P7-D_R-70">
          <mxGeometry width="50" height="50" relative="1" as="geometry">
            <mxPoint x="2063" y="1333" as="sourcePoint" />
            <mxPoint x="2134" y="1275" as="targetPoint" />
          </mxGeometry>
        </mxCell>
        <mxCell id="50ePsgqkP9i3H8P7-D_R-79" value="" style="endArrow=none;html=1;rounded=0;exitX=0;exitY=0;exitDx=0;exitDy=0;entryX=1;entryY=1;entryDx=0;entryDy=0;" edge="1" parent="1" source="50ePsgqkP9i3H8P7-D_R-82" target="50ePsgqkP9i3H8P7-D_R-70">
          <mxGeometry width="50" height="50" relative="1" as="geometry">
            <mxPoint x="2281" y="1265" as="sourcePoint" />
            <mxPoint x="2154" y="1295" as="targetPoint" />
          </mxGeometry>
        </mxCell>
        <mxCell id="50ePsgqkP9i3H8P7-D_R-80" value="" style="endArrow=none;html=1;rounded=0;exitX=0.017;exitY=0.665;exitDx=0;exitDy=0;exitPerimeter=0;entryX=1;entryY=0.25;entryDx=0;entryDy=0;" edge="1" parent="1" source="50ePsgqkP9i3H8P7-D_R-72" target="50ePsgqkP9i3H8P7-D_R-70">
          <mxGeometry width="50" height="50" relative="1" as="geometry">
            <mxPoint x="2093" y="1363" as="sourcePoint" />
            <mxPoint x="2164" y="1305" as="targetPoint" />
          </mxGeometry>
        </mxCell>
        <mxCell id="50ePsgqkP9i3H8P7-D_R-81" value="&lt;span style=&quot;font-size:12.0pt;line-height:115%;&lt;br/&gt;font-family:&amp;quot;Arial&amp;quot;,sans-serif;mso-fareast-font-family:Calibri;mso-fareast-theme-font:&lt;br/&gt;minor-latin;mso-ansi-language:EN-US;mso-fareast-language:EN-US;mso-bidi-language:&lt;br/&gt;AR-SA&quot;&gt;vehicle_id&amp;nbsp;&lt;/span&gt;" style="ellipse;whiteSpace=wrap;html=1;align=center;" vertex="1" parent="1">
          <mxGeometry x="1924" y="1270" width="110" height="40" as="geometry" />
        </mxCell>
        <mxCell id="50ePsgqkP9i3H8P7-D_R-82" value="&lt;span style=&quot;font-size:12.0pt;line-height:115%;&lt;br/&gt;font-family:&amp;quot;Arial&amp;quot;,sans-serif;mso-fareast-font-family:Calibri;mso-fareast-theme-font:&lt;br/&gt;minor-latin;mso-ansi-language:EN-US;mso-fareast-language:EN-US;mso-bidi-language:&lt;br/&gt;AR-SA&quot;&gt;arrival_time&amp;nbsp;&lt;/span&gt;" style="ellipse;whiteSpace=wrap;html=1;align=center;" vertex="1" parent="1">
          <mxGeometry x="2206" y="1285" width="100" height="40" as="geometry" />
        </mxCell>
        <mxCell id="50ePsgqkP9i3H8P7-D_R-83" value="Invoice" style="whiteSpace=wrap;html=1;align=center;" vertex="1" parent="1">
          <mxGeometry x="1536" y="914.75" width="100" height="40" as="geometry" />
        </mxCell>
        <mxCell id="50ePsgqkP9i3H8P7-D_R-84" value="&lt;span style=&quot;font-size:12.0pt;line-height:115%;&lt;br/&gt;font-family:&amp;quot;Arial&amp;quot;,sans-serif;mso-fareast-font-family:Calibri;mso-fareast-theme-font:&lt;br/&gt;minor-latin;mso-ansi-language:EN-US;mso-fareast-language:EN-US;mso-bidi-language:&lt;br/&gt;AR-SA&quot;&gt;amount&lt;/span&gt;" style="ellipse;whiteSpace=wrap;html=1;align=center;" vertex="1" parent="1">
          <mxGeometry x="1613" y="802.25" width="100" height="40" as="geometry" />
        </mxCell>
        <mxCell id="50ePsgqkP9i3H8P7-D_R-85" value="&lt;span style=&quot;font-size:12.0pt;line-height:115%;&lt;br/&gt;font-family:&amp;quot;Arial&amp;quot;,sans-serif;mso-fareast-font-family:Calibri;mso-fareast-theme-font:&lt;br/&gt;minor-latin;mso-ansi-language:EN-US;mso-fareast-language:EN-US;mso-bidi-language:&lt;br/&gt;AR-SA&quot;&gt;tax&amp;nbsp;&lt;/span&gt;" style="ellipse;whiteSpace=wrap;html=1;align=center;" vertex="1" parent="1">
          <mxGeometry x="1676" y="981.25" width="140" height="40" as="geometry" />
        </mxCell>
        <mxCell id="50ePsgqkP9i3H8P7-D_R-86" value="&lt;span style=&quot;font-size:12.0pt;line-height:115%;&lt;br/&gt;font-family:&amp;quot;Arial&amp;quot;,sans-serif;mso-fareast-font-family:Calibri;mso-fareast-theme-font:&lt;br/&gt;minor-latin;mso-ansi-language:EN-US;mso-fareast-language:EN-US;mso-bidi-language:&lt;br/&gt;AR-SA&quot;&gt;order_id&amp;nbsp;&lt;/span&gt;" style="ellipse;whiteSpace=wrap;html=1;align=center;" vertex="1" parent="1">
          <mxGeometry x="1363" y="882.25" width="100" height="40" as="geometry" />
        </mxCell>
        <mxCell id="50ePsgqkP9i3H8P7-D_R-87" value="&lt;span style=&quot;font-size:12.0pt;line-height:115%;&lt;br/&gt;font-family:&amp;quot;Arial&amp;quot;,sans-serif;mso-fareast-font-family:Calibri;mso-fareast-theme-font:&lt;br/&gt;minor-latin;mso-ansi-language:EN-US;mso-fareast-language:EN-US;mso-bidi-language:&lt;br/&gt;AR-SA&quot;&gt;invoice_id&amp;nbsp;&lt;/span&gt;" style="ellipse;whiteSpace=wrap;html=1;align=center;fontStyle=4;" vertex="1" parent="1">
          <mxGeometry x="1455" y="822.5" width="100" height="40" as="geometry" />
        </mxCell>
        <mxCell id="50ePsgqkP9i3H8P7-D_R-88" value="" style="endArrow=none;html=1;rounded=0;exitX=0.742;exitY=0.055;exitDx=0;exitDy=0;entryX=0;entryY=1;entryDx=0;entryDy=0;exitPerimeter=0;" edge="1" parent="1" source="50ePsgqkP9i3H8P7-D_R-93" target="50ePsgqkP9i3H8P7-D_R-83">
          <mxGeometry width="50" height="50" relative="1" as="geometry">
            <mxPoint x="1468.3553390593274" y="1000.6078643762689" as="sourcePoint" />
            <mxPoint x="1533" y="954.75" as="targetPoint" />
          </mxGeometry>
        </mxCell>
        <mxCell id="50ePsgqkP9i3H8P7-D_R-89" value="" style="endArrow=none;html=1;rounded=0;exitX=1;exitY=0.5;exitDx=0;exitDy=0;entryX=0;entryY=0.5;entryDx=0;entryDy=0;" edge="1" parent="1" source="50ePsgqkP9i3H8P7-D_R-86" target="50ePsgqkP9i3H8P7-D_R-83">
          <mxGeometry width="50" height="50" relative="1" as="geometry">
            <mxPoint x="1492" y="1032.75" as="sourcePoint" />
            <mxPoint x="1563" y="974.75" as="targetPoint" />
          </mxGeometry>
        </mxCell>
        <mxCell id="50ePsgqkP9i3H8P7-D_R-90" value="" style="endArrow=none;html=1;rounded=0;exitX=1;exitY=1;exitDx=0;exitDy=0;entryX=0.25;entryY=0;entryDx=0;entryDy=0;" edge="1" parent="1" source="50ePsgqkP9i3H8P7-D_R-87" target="50ePsgqkP9i3H8P7-D_R-83">
          <mxGeometry width="50" height="50" relative="1" as="geometry">
            <mxPoint x="1502" y="1042.75" as="sourcePoint" />
            <mxPoint x="1573" y="984.75" as="targetPoint" />
          </mxGeometry>
        </mxCell>
        <mxCell id="50ePsgqkP9i3H8P7-D_R-91" value="" style="endArrow=none;html=1;rounded=0;exitX=0.5;exitY=1;exitDx=0;exitDy=0;entryX=0.75;entryY=0;entryDx=0;entryDy=0;" edge="1" parent="1" source="50ePsgqkP9i3H8P7-D_R-84" target="50ePsgqkP9i3H8P7-D_R-83">
          <mxGeometry width="50" height="50" relative="1" as="geometry">
            <mxPoint x="1512" y="1052.75" as="sourcePoint" />
            <mxPoint x="1583" y="994.75" as="targetPoint" />
          </mxGeometry>
        </mxCell>
        <mxCell id="50ePsgqkP9i3H8P7-D_R-92" value="" style="endArrow=none;html=1;rounded=0;exitX=0;exitY=0;exitDx=0;exitDy=0;entryX=1;entryY=1;entryDx=0;entryDy=0;" edge="1" parent="1" source="50ePsgqkP9i3H8P7-D_R-85" target="50ePsgqkP9i3H8P7-D_R-83">
          <mxGeometry width="50" height="50" relative="1" as="geometry">
            <mxPoint x="1705.38" y="921.3500000000001" as="sourcePoint" />
            <mxPoint x="1613" y="1024.75" as="targetPoint" />
          </mxGeometry>
        </mxCell>
        <mxCell id="50ePsgqkP9i3H8P7-D_R-93" value="&lt;span style=&quot;font-size:12.0pt;line-height:115%;&lt;br/&gt;font-family:&amp;quot;Arial&amp;quot;,sans-serif;mso-fareast-font-family:Calibri;mso-fareast-theme-font:&lt;br/&gt;minor-latin;mso-ansi-language:EN-US;mso-fareast-language:EN-US;mso-bidi-language:&lt;br/&gt;AR-SA&quot;&gt;currency_id&amp;nbsp;&lt;/span&gt;" style="ellipse;whiteSpace=wrap;html=1;align=center;" vertex="1" parent="1">
          <mxGeometry x="1413" y="1009.75" width="110" height="40" as="geometry" />
        </mxCell>
        <mxCell id="50ePsgqkP9i3H8P7-D_R-94" value="Transport_Provider" style="whiteSpace=wrap;html=1;align=center;" vertex="1" parent="1">
          <mxGeometry x="2695" y="1500" width="109" height="40" as="geometry" />
        </mxCell>
        <mxCell id="50ePsgqkP9i3H8P7-D_R-95" value="&lt;span style=&quot;font-size:12.0pt;line-height:115%;&lt;br/&gt;font-family:&amp;quot;Arial&amp;quot;,sans-serif;mso-fareast-font-family:Calibri;mso-fareast-theme-font:&lt;br/&gt;minor-latin;mso-ansi-language:EN-US;mso-fareast-language:EN-US;mso-bidi-language:&lt;br/&gt;AR-SA&quot;&gt;country_id&lt;/span&gt;" style="ellipse;whiteSpace=wrap;html=1;align=center;" vertex="1" parent="1">
          <mxGeometry x="2834" y="1460" width="110" height="40" as="geometry" />
        </mxCell>
        <mxCell id="50ePsgqkP9i3H8P7-D_R-96" value="&lt;span style=&quot;font-size:12.0pt;line-height:115%;&lt;br/&gt;font-family:&amp;quot;Arial&amp;quot;,sans-serif;mso-fareast-font-family:Calibri;mso-fareast-theme-font:&lt;br/&gt;minor-latin;mso-ansi-language:EN-US;mso-fareast-language:EN-US;mso-bidi-language:&lt;br/&gt;AR-SA&quot;&gt;name&amp;nbsp;&lt;/span&gt;" style="ellipse;whiteSpace=wrap;html=1;align=center;" vertex="1" parent="1">
          <mxGeometry x="2544" y="1570" width="100" height="40" as="geometry" />
        </mxCell>
        <mxCell id="50ePsgqkP9i3H8P7-D_R-97" value="&lt;span style=&quot;font-size:12.0pt;line-height:115%;&lt;br/&gt;font-family:&amp;quot;Arial&amp;quot;,sans-serif;mso-fareast-font-family:Calibri;mso-fareast-theme-font:&lt;br/&gt;minor-latin;mso-ansi-language:EN-US;mso-fareast-language:EN-US;mso-bidi-language:&lt;br/&gt;AR-SA&quot;&gt;provider_id&amp;nbsp;&lt;/span&gt;" style="ellipse;whiteSpace=wrap;html=1;align=center;fontStyle=4;" vertex="1" parent="1">
          <mxGeometry x="2534" y="1460" width="100" height="40" as="geometry" />
        </mxCell>
        <mxCell id="50ePsgqkP9i3H8P7-D_R-98" value="" style="endArrow=none;html=1;rounded=0;exitX=1;exitY=0;exitDx=0;exitDy=0;entryX=0;entryY=1;entryDx=0;entryDy=0;" edge="1" parent="1" source="50ePsgqkP9i3H8P7-D_R-96" target="50ePsgqkP9i3H8P7-D_R-94">
          <mxGeometry width="50" height="50" relative="1" as="geometry">
            <mxPoint x="2651" y="1618" as="sourcePoint" />
            <mxPoint x="2722" y="1560" as="targetPoint" />
          </mxGeometry>
        </mxCell>
        <mxCell id="50ePsgqkP9i3H8P7-D_R-99" value="" style="endArrow=none;html=1;rounded=0;exitX=1;exitY=0.5;exitDx=0;exitDy=0;entryX=0;entryY=0;entryDx=0;entryDy=0;" edge="1" parent="1" source="50ePsgqkP9i3H8P7-D_R-97" target="50ePsgqkP9i3H8P7-D_R-94">
          <mxGeometry width="50" height="50" relative="1" as="geometry">
            <mxPoint x="2661" y="1628" as="sourcePoint" />
            <mxPoint x="2732" y="1570" as="targetPoint" />
          </mxGeometry>
        </mxCell>
        <mxCell id="50ePsgqkP9i3H8P7-D_R-100" value="" style="endArrow=none;html=1;rounded=0;exitX=0;exitY=0.5;exitDx=0;exitDy=0;entryX=1;entryY=0.5;entryDx=0;entryDy=0;" edge="1" parent="1" source="50ePsgqkP9i3H8P7-D_R-95" target="50ePsgqkP9i3H8P7-D_R-94">
          <mxGeometry width="50" height="50" relative="1" as="geometry">
            <mxPoint x="2671" y="1638" as="sourcePoint" />
            <mxPoint x="2742" y="1580" as="targetPoint" />
          </mxGeometry>
        </mxCell>
        <mxCell id="50ePsgqkP9i3H8P7-D_R-101" value="Warehouse" style="whiteSpace=wrap;html=1;align=center;" vertex="1" parent="1">
          <mxGeometry x="1137" y="1742" width="100" height="40" as="geometry" />
        </mxCell>
        <mxCell id="50ePsgqkP9i3H8P7-D_R-102" value="&lt;span style=&quot;font-size:12.0pt;line-height:115%;&lt;br/&gt;font-family:&amp;quot;Arial&amp;quot;,sans-serif;mso-fareast-font-family:Calibri;mso-fareast-theme-font:&lt;br/&gt;minor-latin;mso-ansi-language:EN-US;mso-fareast-language:EN-US;mso-bidi-language:&lt;br/&gt;AR-SA&quot;&gt;capacity&lt;/span&gt;" style="ellipse;whiteSpace=wrap;html=1;align=center;" vertex="1" parent="1">
          <mxGeometry x="1286" y="1722" width="100" height="40" as="geometry" />
        </mxCell>
        <mxCell id="50ePsgqkP9i3H8P7-D_R-103" value="&lt;span style=&quot;font-size:12.0pt;line-height:115%;&lt;br/&gt;font-family:&amp;quot;Arial&amp;quot;,sans-serif;mso-fareast-font-family:Calibri;mso-fareast-theme-font:&lt;br/&gt;minor-latin;mso-ansi-language:EN-US;mso-fareast-language:EN-US;mso-bidi-language:&lt;br/&gt;AR-SA&quot;&gt;station_id&amp;nbsp;&lt;/span&gt;" style="ellipse;whiteSpace=wrap;html=1;align=center;" vertex="1" parent="1">
          <mxGeometry x="986" y="1812" width="100" height="40" as="geometry" />
        </mxCell>
        <mxCell id="50ePsgqkP9i3H8P7-D_R-104" value="&lt;span style=&quot;font-size:12.0pt;line-height:115%;&lt;br/&gt;font-family:&amp;quot;Arial&amp;quot;,sans-serif;mso-fareast-font-family:Calibri;mso-fareast-theme-font:&lt;br/&gt;minor-latin;mso-ansi-language:EN-US;mso-fareast-language:EN-US;mso-bidi-language:&lt;br/&gt;AR-SA&quot;&gt;warehouse_id&amp;nbsp;&lt;/span&gt;" style="ellipse;whiteSpace=wrap;html=1;align=center;fontStyle=4;" vertex="1" parent="1">
          <mxGeometry x="946" y="1702" width="130" height="40" as="geometry" />
        </mxCell>
        <mxCell id="50ePsgqkP9i3H8P7-D_R-105" value="" style="endArrow=none;html=1;rounded=0;exitX=1;exitY=0;exitDx=0;exitDy=0;entryX=0;entryY=1;entryDx=0;entryDy=0;" edge="1" parent="1" source="50ePsgqkP9i3H8P7-D_R-103" target="50ePsgqkP9i3H8P7-D_R-101">
          <mxGeometry width="50" height="50" relative="1" as="geometry">
            <mxPoint x="1093" y="1860" as="sourcePoint" />
            <mxPoint x="1164" y="1802" as="targetPoint" />
          </mxGeometry>
        </mxCell>
        <mxCell id="50ePsgqkP9i3H8P7-D_R-106" value="" style="endArrow=none;html=1;rounded=0;exitX=1;exitY=0.5;exitDx=0;exitDy=0;entryX=0;entryY=0;entryDx=0;entryDy=0;" edge="1" parent="1" source="50ePsgqkP9i3H8P7-D_R-104" target="50ePsgqkP9i3H8P7-D_R-101">
          <mxGeometry width="50" height="50" relative="1" as="geometry">
            <mxPoint x="1103" y="1870" as="sourcePoint" />
            <mxPoint x="1174" y="1812" as="targetPoint" />
          </mxGeometry>
        </mxCell>
        <mxCell id="50ePsgqkP9i3H8P7-D_R-107" value="" style="endArrow=none;html=1;rounded=0;exitX=0;exitY=0.5;exitDx=0;exitDy=0;entryX=1;entryY=0.5;entryDx=0;entryDy=0;" edge="1" parent="1" source="50ePsgqkP9i3H8P7-D_R-102" target="50ePsgqkP9i3H8P7-D_R-101">
          <mxGeometry width="50" height="50" relative="1" as="geometry">
            <mxPoint x="1113" y="1880" as="sourcePoint" />
            <mxPoint x="1184" y="1822" as="targetPoint" />
          </mxGeometry>
        </mxCell>
        <mxCell id="50ePsgqkP9i3H8P7-D_R-108" value="Shipping_Fee" style="whiteSpace=wrap;html=1;align=center;" vertex="1" parent="1">
          <mxGeometry x="1696" y="1592" width="100" height="40" as="geometry" />
        </mxCell>
        <mxCell id="50ePsgqkP9i3H8P7-D_R-109" value="&lt;span style=&quot;font-size:12.0pt;line-height:115%;&lt;br/&gt;font-family:&amp;quot;Arial&amp;quot;,sans-serif;mso-fareast-font-family:Calibri;mso-fareast-theme-font:&lt;br/&gt;minor-latin;mso-ansi-language:EN-US;mso-fareast-language:EN-US;mso-bidi-language:&lt;br/&gt;AR-SA&quot;&gt;fee_amount&amp;nbsp;&lt;/span&gt;" style="ellipse;whiteSpace=wrap;html=1;align=center;" vertex="1" parent="1">
          <mxGeometry x="1803" y="1512" width="100" height="40" as="geometry" />
        </mxCell>
        <mxCell id="50ePsgqkP9i3H8P7-D_R-110" value="&lt;span style=&quot;font-size:12.0pt;line-height:115%;&lt;br/&gt;font-family:&amp;quot;Arial&amp;quot;,sans-serif;mso-fareast-font-family:Calibri;mso-fareast-theme-font:&lt;br/&gt;minor-latin;mso-ansi-language:EN-US;mso-fareast-language:EN-US;mso-bidi-language:&lt;br/&gt;AR-SA&quot;&gt;route_id&lt;/span&gt;" style="ellipse;whiteSpace=wrap;html=1;align=center;" vertex="1" parent="1">
          <mxGeometry x="1548" y="1642" width="100" height="40" as="geometry" />
        </mxCell>
        <mxCell id="50ePsgqkP9i3H8P7-D_R-111" value="&lt;span style=&quot;font-size:12.0pt;line-height:115%;&lt;br/&gt;font-family:&amp;quot;Arial&amp;quot;,sans-serif;mso-fareast-font-family:Calibri;mso-fareast-theme-font:&lt;br/&gt;minor-latin;mso-ansi-language:EN-US;mso-fareast-language:EN-US;mso-bidi-language:&lt;br/&gt;AR-SA&quot;&gt;fee_id&amp;nbsp;&lt;/span&gt;" style="ellipse;whiteSpace=wrap;html=1;align=center;fontStyle=4;" vertex="1" parent="1">
          <mxGeometry x="1600.5" y="1512" width="100" height="40" as="geometry" />
        </mxCell>
        <mxCell id="50ePsgqkP9i3H8P7-D_R-112" value="" style="endArrow=none;html=1;rounded=0;exitX=0;exitY=0.5;exitDx=0;exitDy=0;entryX=1;entryY=1;entryDx=0;entryDy=0;" edge="1" parent="1" source="50ePsgqkP9i3H8P7-D_R-116" target="50ePsgqkP9i3H8P7-D_R-108">
          <mxGeometry width="50" height="50" relative="1" as="geometry">
            <mxPoint x="1628.3553390593274" y="1677.857864376269" as="sourcePoint" />
            <mxPoint x="1693" y="1632" as="targetPoint" />
          </mxGeometry>
        </mxCell>
        <mxCell id="50ePsgqkP9i3H8P7-D_R-113" value="" style="endArrow=none;html=1;rounded=0;exitX=1;exitY=0.5;exitDx=0;exitDy=0;entryX=0;entryY=0.5;entryDx=0;entryDy=0;" edge="1" parent="1" target="50ePsgqkP9i3H8P7-D_R-108">
          <mxGeometry width="50" height="50" relative="1" as="geometry">
            <mxPoint x="1638" y="1652" as="sourcePoint" />
            <mxPoint x="1723" y="1652" as="targetPoint" />
          </mxGeometry>
        </mxCell>
        <mxCell id="50ePsgqkP9i3H8P7-D_R-114" value="" style="endArrow=none;html=1;rounded=0;exitX=0.5;exitY=1;exitDx=0;exitDy=0;entryX=0.25;entryY=0;entryDx=0;entryDy=0;" edge="1" parent="1" source="50ePsgqkP9i3H8P7-D_R-111" target="50ePsgqkP9i3H8P7-D_R-108">
          <mxGeometry width="50" height="50" relative="1" as="geometry">
            <mxPoint x="1662" y="1720" as="sourcePoint" />
            <mxPoint x="1733" y="1662" as="targetPoint" />
          </mxGeometry>
        </mxCell>
        <mxCell id="50ePsgqkP9i3H8P7-D_R-115" value="" style="endArrow=none;html=1;rounded=0;exitX=0;exitY=1;exitDx=0;exitDy=0;entryX=0.75;entryY=0;entryDx=0;entryDy=0;" edge="1" parent="1" source="50ePsgqkP9i3H8P7-D_R-109" target="50ePsgqkP9i3H8P7-D_R-108">
          <mxGeometry width="50" height="50" relative="1" as="geometry">
            <mxPoint x="1672" y="1730" as="sourcePoint" />
            <mxPoint x="1743" y="1672" as="targetPoint" />
          </mxGeometry>
        </mxCell>
        <mxCell id="50ePsgqkP9i3H8P7-D_R-116" value="&lt;span style=&quot;font-size:12.0pt;line-height:115%;&lt;br/&gt;font-family:&amp;quot;Arial&amp;quot;,sans-serif;mso-fareast-font-family:Calibri;mso-fareast-theme-font:&lt;br/&gt;minor-latin;mso-ansi-language:EN-US;mso-fareast-language:EN-US;mso-bidi-language:&lt;br/&gt;AR-SA&quot;&gt;currency_id&amp;nbsp;&lt;/span&gt;" style="ellipse;whiteSpace=wrap;html=1;align=center;" vertex="1" parent="1">
          <mxGeometry x="1858" y="1622" width="110" height="40" as="geometry" />
        </mxCell>
        <mxCell id="50ePsgqkP9i3H8P7-D_R-117" value="Customs" style="whiteSpace=wrap;html=1;align=center;" vertex="1" parent="1">
          <mxGeometry x="2059" y="1873" width="109" height="40" as="geometry" />
        </mxCell>
        <mxCell id="50ePsgqkP9i3H8P7-D_R-118" value="&lt;span style=&quot;font-size:12.0pt;line-height:&lt;br/&gt;115%;font-family:&amp;quot;Arial&amp;quot;,sans-serif;mso-fareast-font-family:Calibri;mso-fareast-theme-font:&lt;br/&gt;minor-latin;mso-ansi-language:VI;mso-fareast-language:EN-US;mso-bidi-language:&lt;br/&gt;AR-SA&quot; lang=&quot;VI&quot;&gt;time&lt;/span&gt;" style="ellipse;whiteSpace=wrap;html=1;align=center;" vertex="1" parent="1">
          <mxGeometry x="2068" y="1772" width="100" height="40" as="geometry" />
        </mxCell>
        <mxCell id="50ePsgqkP9i3H8P7-D_R-119" value="&lt;span style=&quot;font-size:12.0pt;line-height:115%;&lt;br/&gt;font-family:&amp;quot;Arial&amp;quot;,sans-serif;mso-fareast-font-family:Calibri;mso-fareast-theme-font:&lt;br/&gt;minor-latin;mso-ansi-language:EN-US;mso-fareast-language:EN-US;mso-bidi-language:&lt;br/&gt;AR-SA&quot;&gt;country_id&lt;/span&gt;" style="ellipse;whiteSpace=wrap;html=1;align=center;" vertex="1" parent="1">
          <mxGeometry x="1908" y="1943" width="100" height="40" as="geometry" />
        </mxCell>
        <mxCell id="50ePsgqkP9i3H8P7-D_R-120" value="&lt;span style=&quot;font-size:12.0pt;line-height:115%;&lt;br/&gt;font-family:&amp;quot;Arial&amp;quot;,sans-serif;mso-fareast-font-family:Calibri;mso-fareast-theme-font:&lt;br/&gt;minor-latin;mso-ansi-language:EN-US;mso-fareast-language:EN-US;mso-bidi-language:&lt;br/&gt;AR-SA&quot;&gt;customs_id&amp;nbsp;&lt;/span&gt;" style="ellipse;whiteSpace=wrap;html=1;align=center;fontStyle=4;" vertex="1" parent="1">
          <mxGeometry x="1898" y="1833" width="100" height="40" as="geometry" />
        </mxCell>
        <mxCell id="50ePsgqkP9i3H8P7-D_R-121" value="" style="endArrow=none;html=1;rounded=0;exitX=1;exitY=0;exitDx=0;exitDy=0;entryX=0;entryY=1;entryDx=0;entryDy=0;" edge="1" parent="1" source="50ePsgqkP9i3H8P7-D_R-119" target="50ePsgqkP9i3H8P7-D_R-117">
          <mxGeometry width="50" height="50" relative="1" as="geometry">
            <mxPoint x="2015" y="1991" as="sourcePoint" />
            <mxPoint x="2086" y="1933" as="targetPoint" />
          </mxGeometry>
        </mxCell>
        <mxCell id="50ePsgqkP9i3H8P7-D_R-122" value="" style="endArrow=none;html=1;rounded=0;exitX=1;exitY=0.5;exitDx=0;exitDy=0;entryX=0;entryY=0;entryDx=0;entryDy=0;" edge="1" parent="1" source="50ePsgqkP9i3H8P7-D_R-120" target="50ePsgqkP9i3H8P7-D_R-117">
          <mxGeometry width="50" height="50" relative="1" as="geometry">
            <mxPoint x="2025" y="2001" as="sourcePoint" />
            <mxPoint x="2096" y="1943" as="targetPoint" />
          </mxGeometry>
        </mxCell>
        <mxCell id="50ePsgqkP9i3H8P7-D_R-123" value="" style="endArrow=none;html=1;rounded=0;exitX=0.5;exitY=1;exitDx=0;exitDy=0;entryX=0.5;entryY=0;entryDx=0;entryDy=0;" edge="1" parent="1" source="50ePsgqkP9i3H8P7-D_R-118" target="50ePsgqkP9i3H8P7-D_R-117">
          <mxGeometry width="50" height="50" relative="1" as="geometry">
            <mxPoint x="2035" y="2011" as="sourcePoint" />
            <mxPoint x="2106" y="1953" as="targetPoint" />
          </mxGeometry>
        </mxCell>
        <mxCell id="50ePsgqkP9i3H8P7-D_R-124" value="&lt;font face=&quot;Arial, sans-serif&quot;&gt;&lt;span style=&quot;font-size: 16px;&quot;&gt;Currency_Exchange&lt;/span&gt;&lt;/font&gt;" style="whiteSpace=wrap;html=1;align=center;" vertex="1" parent="1">
          <mxGeometry x="1480.5" y="1892" width="170" height="55" as="geometry" />
        </mxCell>
        <mxCell id="50ePsgqkP9i3H8P7-D_R-125" value="&lt;span style=&quot;font-size:12.0pt;line-height:115%;&lt;br/&gt;font-family:&amp;quot;Arial&amp;quot;,sans-serif;mso-fareast-font-family:Calibri;mso-fareast-theme-font:&lt;br/&gt;minor-latin;mso-ansi-language:EN-US;mso-fareast-language:EN-US;mso-bidi-language:&lt;br/&gt;AR-SA&quot;&gt;exchange_rate&amp;nbsp;&lt;/span&gt;" style="ellipse;whiteSpace=wrap;html=1;align=center;" vertex="1" parent="1">
          <mxGeometry x="1653" y="1992" width="130" height="40" as="geometry" />
        </mxCell>
        <mxCell id="50ePsgqkP9i3H8P7-D_R-126" value="&lt;span style=&quot;font-size:12.0pt;line-height:115%;&lt;br/&gt;font-family:&amp;quot;Arial&amp;quot;,sans-serif;mso-fareast-font-family:Calibri;mso-fareast-theme-font:&lt;br/&gt;minor-latin;mso-ansi-language:EN-US;mso-fareast-language:EN-US;mso-bidi-language:&lt;br/&gt;AR-SA&quot;&gt;currency_name&amp;nbsp;&lt;/span&gt;" style="ellipse;whiteSpace=wrap;html=1;align=center;" vertex="1" parent="1">
          <mxGeometry x="1330.5" y="1983" width="140" height="40" as="geometry" />
        </mxCell>
        <mxCell id="50ePsgqkP9i3H8P7-D_R-127" value="&lt;span style=&quot;font-size:12.0pt;line-height:115%;&lt;br/&gt;font-family:&amp;quot;Arial&amp;quot;,sans-serif;mso-fareast-font-family:Calibri;mso-fareast-theme-font:&lt;br/&gt;minor-latin;mso-ansi-language:EN-US;mso-fareast-language:EN-US;mso-bidi-language:&lt;br/&gt;AR-SA&quot;&gt;currency_id&amp;nbsp;&lt;/span&gt;" style="ellipse;whiteSpace=wrap;html=1;align=center;fontStyle=4;" vertex="1" parent="1">
          <mxGeometry x="1336" y="1890" width="100" height="40" as="geometry" />
        </mxCell>
        <mxCell id="50ePsgqkP9i3H8P7-D_R-128" value="" style="endArrow=none;html=1;rounded=0;exitX=1;exitY=0.5;exitDx=0;exitDy=0;entryX=0;entryY=1;entryDx=0;entryDy=0;" edge="1" parent="1" target="50ePsgqkP9i3H8P7-D_R-124">
          <mxGeometry width="50" height="50" relative="1" as="geometry">
            <mxPoint x="1440.5" y="1987" as="sourcePoint" />
            <mxPoint x="1568.5" y="1952" as="targetPoint" />
          </mxGeometry>
        </mxCell>
        <mxCell id="50ePsgqkP9i3H8P7-D_R-129" value="" style="endArrow=none;html=1;rounded=0;exitX=1;exitY=0.5;exitDx=0;exitDy=0;entryX=0;entryY=0;entryDx=0;entryDy=0;" edge="1" parent="1" source="50ePsgqkP9i3H8P7-D_R-127" target="50ePsgqkP9i3H8P7-D_R-124">
          <mxGeometry width="50" height="50" relative="1" as="geometry">
            <mxPoint x="1507.5" y="2020" as="sourcePoint" />
            <mxPoint x="1578.5" y="1962" as="targetPoint" />
          </mxGeometry>
        </mxCell>
        <mxCell id="50ePsgqkP9i3H8P7-D_R-130" value="" style="endArrow=none;html=1;rounded=0;exitX=0;exitY=0;exitDx=0;exitDy=0;entryX=0.75;entryY=1;entryDx=0;entryDy=0;" edge="1" parent="1" source="50ePsgqkP9i3H8P7-D_R-125" target="50ePsgqkP9i3H8P7-D_R-124">
          <mxGeometry width="50" height="50" relative="1" as="geometry">
            <mxPoint x="1524.5" y="1960" as="sourcePoint" />
            <mxPoint x="1657.5" y="1863.25" as="targetPoint" />
          </mxGeometry>
        </mxCell>
        <mxCell id="50ePsgqkP9i3H8P7-D_R-131" value="" style="endArrow=none;html=1;rounded=0;exitX=0.5;exitY=0;exitDx=0;exitDy=0;entryX=0;entryY=0.75;entryDx=0;entryDy=0;" edge="1" parent="1" source="50ePsgqkP9i3H8P7-D_R-42" target="50ePsgqkP9i3H8P7-D_R-31">
          <mxGeometry width="50" height="50" relative="1" as="geometry">
            <mxPoint x="2724" y="1342.5" as="sourcePoint" />
            <mxPoint x="2167" y="1272.5" as="targetPoint" />
          </mxGeometry>
        </mxCell>
        <mxCell id="50ePsgqkP9i3H8P7-D_R-132" value="Create" style="shape=rhombus;perimeter=rhombusPerimeter;whiteSpace=wrap;html=1;align=center;" vertex="1" parent="1">
          <mxGeometry x="1799" y="900" width="120" height="60" as="geometry" />
        </mxCell>
        <mxCell id="50ePsgqkP9i3H8P7-D_R-133" value="" style="endArrow=none;html=1;rounded=0;exitX=0;exitY=0.5;exitDx=0;exitDy=0;entryX=1;entryY=0.5;entryDx=0;entryDy=0;" edge="1" parent="1" source="50ePsgqkP9i3H8P7-D_R-1" target="50ePsgqkP9i3H8P7-D_R-132">
          <mxGeometry relative="1" as="geometry">
            <mxPoint x="2069" y="715" as="sourcePoint" />
            <mxPoint x="1882" y="935" as="targetPoint" />
          </mxGeometry>
        </mxCell>
        <mxCell id="50ePsgqkP9i3H8P7-D_R-134" value="" style="endArrow=none;html=1;rounded=0;entryX=1;entryY=0.5;entryDx=0;entryDy=0;" edge="1" parent="1" target="50ePsgqkP9i3H8P7-D_R-135">
          <mxGeometry relative="1" as="geometry">
            <mxPoint x="2720" y="912" as="sourcePoint" />
            <mxPoint x="1794" y="930" as="targetPoint" />
          </mxGeometry>
        </mxCell>
        <mxCell id="50ePsgqkP9i3H8P7-D_R-135" value="Place" style="shape=rhombus;perimeter=rhombusPerimeter;whiteSpace=wrap;html=1;align=center;" vertex="1" parent="1">
          <mxGeometry x="2359" y="892.5" width="120" height="60" as="geometry" />
        </mxCell>
        <mxCell id="50ePsgqkP9i3H8P7-D_R-136" value="" style="endArrow=none;html=1;rounded=0;exitX=0.94;exitY=0.563;exitDx=0;exitDy=0;entryX=0;entryY=0.5;entryDx=0;entryDy=0;exitPerimeter=0;" edge="1" parent="1" source="50ePsgqkP9i3H8P7-D_R-1" target="50ePsgqkP9i3H8P7-D_R-135">
          <mxGeometry relative="1" as="geometry">
            <mxPoint x="2200" y="903" as="sourcePoint" />
            <mxPoint x="2277" y="777" as="targetPoint" />
          </mxGeometry>
        </mxCell>
        <mxCell id="50ePsgqkP9i3H8P7-D_R-137" value="" style="endArrow=none;html=1;rounded=0;entryX=0;entryY=0.5;entryDx=0;entryDy=0;exitX=1;exitY=0.5;exitDx=0;exitDy=0;" edge="1" parent="1" source="50ePsgqkP9i3H8P7-D_R-83" target="50ePsgqkP9i3H8P7-D_R-132">
          <mxGeometry relative="1" as="geometry">
            <mxPoint x="1413" y="952.5" as="sourcePoint" />
            <mxPoint x="1258" y="962" as="targetPoint" />
          </mxGeometry>
        </mxCell>
        <mxCell id="50ePsgqkP9i3H8P7-D_R-138" value="Receive" style="shape=rhombus;perimeter=rhombusPerimeter;whiteSpace=wrap;html=1;align=center;" vertex="1" parent="1">
          <mxGeometry x="2074.5" y="1055" width="120" height="60" as="geometry" />
        </mxCell>
        <mxCell id="50ePsgqkP9i3H8P7-D_R-139" value="" style="endArrow=none;html=1;rounded=0;exitX=0.5;exitY=1;exitDx=0;exitDy=0;entryX=0.5;entryY=0;entryDx=0;entryDy=0;" edge="1" parent="1" source="50ePsgqkP9i3H8P7-D_R-1" target="50ePsgqkP9i3H8P7-D_R-138">
          <mxGeometry relative="1" as="geometry">
            <mxPoint x="2194" y="925" as="sourcePoint" />
            <mxPoint x="2369" y="933" as="targetPoint" />
          </mxGeometry>
        </mxCell>
        <mxCell id="50ePsgqkP9i3H8P7-D_R-140" value="" style="endArrow=none;html=1;rounded=0;exitX=0.5;exitY=0;exitDx=0;exitDy=0;entryX=0.5;entryY=1;entryDx=0;entryDy=0;" edge="1" parent="1" source="50ePsgqkP9i3H8P7-D_R-70" target="50ePsgqkP9i3H8P7-D_R-138">
          <mxGeometry relative="1" as="geometry">
            <mxPoint x="2204" y="935" as="sourcePoint" />
            <mxPoint x="2379" y="943" as="targetPoint" />
          </mxGeometry>
        </mxCell>
        <mxCell id="50ePsgqkP9i3H8P7-D_R-141" value="Transpot" style="shape=rhombus;perimeter=rhombusPerimeter;whiteSpace=wrap;html=1;align=center;" vertex="1" parent="1">
          <mxGeometry x="2073" y="1335" width="120" height="60" as="geometry" />
        </mxCell>
        <mxCell id="50ePsgqkP9i3H8P7-D_R-142" value="" style="endArrow=none;html=1;rounded=0;exitX=0.5;exitY=0;exitDx=0;exitDy=0;" edge="1" parent="1" source="50ePsgqkP9i3H8P7-D_R-141">
          <mxGeometry relative="1" as="geometry">
            <mxPoint x="2147" y="1205" as="sourcePoint" />
            <mxPoint x="2133" y="1235" as="targetPoint" />
          </mxGeometry>
        </mxCell>
        <mxCell id="50ePsgqkP9i3H8P7-D_R-143" value="" style="endArrow=none;html=1;rounded=0;exitX=0.5;exitY=1;exitDx=0;exitDy=0;entryX=0.5;entryY=0;entryDx=0;entryDy=0;" edge="1" parent="1" source="50ePsgqkP9i3H8P7-D_R-141" target="50ePsgqkP9i3H8P7-D_R-43">
          <mxGeometry relative="1" as="geometry">
            <mxPoint x="2143" y="1345" as="sourcePoint" />
            <mxPoint x="2143" y="1245" as="targetPoint" />
          </mxGeometry>
        </mxCell>
        <mxCell id="50ePsgqkP9i3H8P7-D_R-144" value="Apply" style="shape=rhombus;perimeter=rhombusPerimeter;whiteSpace=wrap;html=1;align=center;" vertex="1" parent="1">
          <mxGeometry x="1316" y="1373" width="120" height="60" as="geometry" />
        </mxCell>
        <mxCell id="50ePsgqkP9i3H8P7-D_R-145" value="" style="endArrow=none;html=1;rounded=0;exitX=1;exitY=0;exitDx=0;exitDy=0;entryX=0.25;entryY=1;entryDx=0;entryDy=0;" edge="1" parent="1" source="50ePsgqkP9i3H8P7-D_R-144" target="50ePsgqkP9i3H8P7-D_R-54">
          <mxGeometry width="50" height="50" relative="1" as="geometry">
            <mxPoint x="1594" y="1346" as="sourcePoint" />
            <mxPoint x="1578" y="1226" as="targetPoint" />
          </mxGeometry>
        </mxCell>
        <mxCell id="50ePsgqkP9i3H8P7-D_R-146" value="" style="endArrow=none;html=1;rounded=0;exitX=0;exitY=1;exitDx=0;exitDy=0;entryX=0.5;entryY=0;entryDx=0;entryDy=0;" edge="1" parent="1" source="50ePsgqkP9i3H8P7-D_R-144" target="50ePsgqkP9i3H8P7-D_R-63">
          <mxGeometry width="50" height="50" relative="1" as="geometry">
            <mxPoint x="1172" y="1442" as="sourcePoint" />
            <mxPoint x="1171" y="1352" as="targetPoint" />
          </mxGeometry>
        </mxCell>
        <mxCell id="50ePsgqkP9i3H8P7-D_R-147" value="Located at" style="shape=rhombus;perimeter=rhombusPerimeter;whiteSpace=wrap;html=1;align=center;" vertex="1" parent="1">
          <mxGeometry x="1116" y="1642" width="120" height="60" as="geometry" />
        </mxCell>
        <mxCell id="50ePsgqkP9i3H8P7-D_R-148" value="" style="endArrow=none;html=1;rounded=0;entryX=0.5;entryY=1;entryDx=0;entryDy=0;" edge="1" parent="1" source="50ePsgqkP9i3H8P7-D_R-147" target="50ePsgqkP9i3H8P7-D_R-63">
          <mxGeometry width="50" height="50" relative="1" as="geometry">
            <mxPoint x="1172" y="1502" as="sourcePoint" />
            <mxPoint x="1179" y="1602" as="targetPoint" />
          </mxGeometry>
        </mxCell>
        <mxCell id="50ePsgqkP9i3H8P7-D_R-149" value="" style="endArrow=none;html=1;rounded=0;exitX=0.39;exitY=0;exitDx=0;exitDy=0;entryX=0.5;entryY=1;entryDx=0;entryDy=0;exitPerimeter=0;" edge="1" parent="1" source="50ePsgqkP9i3H8P7-D_R-101" target="50ePsgqkP9i3H8P7-D_R-147">
          <mxGeometry width="50" height="50" relative="1" as="geometry">
            <mxPoint x="1182" y="1512" as="sourcePoint" />
            <mxPoint x="1189" y="1572" as="targetPoint" />
          </mxGeometry>
        </mxCell>
        <mxCell id="50ePsgqkP9i3H8P7-D_R-150" value="Charge" style="shape=rhombus;perimeter=rhombusPerimeter;whiteSpace=wrap;html=1;align=center;" vertex="1" parent="1">
          <mxGeometry x="1593" y="1732" width="120" height="60" as="geometry" />
        </mxCell>
        <mxCell id="50ePsgqkP9i3H8P7-D_R-151" value="Calculate fee" style="shape=rhombus;perimeter=rhombusPerimeter;whiteSpace=wrap;html=1;align=center;" vertex="1" parent="1">
          <mxGeometry x="1395" y="1562" width="120" height="60" as="geometry" />
        </mxCell>
        <mxCell id="50ePsgqkP9i3H8P7-D_R-152" value="" style="endArrow=none;html=1;rounded=0;exitX=0.667;exitY=0.167;exitDx=0;exitDy=0;entryX=0.5;entryY=1;entryDx=0;entryDy=0;exitPerimeter=0;" edge="1" parent="1" source="50ePsgqkP9i3H8P7-D_R-150" target="50ePsgqkP9i3H8P7-D_R-108">
          <mxGeometry width="50" height="50" relative="1" as="geometry">
            <mxPoint x="1620" y="1732" as="sourcePoint" />
            <mxPoint x="1678" y="1692" as="targetPoint" />
          </mxGeometry>
        </mxCell>
        <mxCell id="50ePsgqkP9i3H8P7-D_R-153" value="" style="endArrow=none;html=1;rounded=0;exitX=0.361;exitY=0.862;exitDx=0;exitDy=0;entryX=0.5;entryY=0;entryDx=0;entryDy=0;exitPerimeter=0;" edge="1" parent="1" source="50ePsgqkP9i3H8P7-D_R-150" target="50ePsgqkP9i3H8P7-D_R-124">
          <mxGeometry width="50" height="50" relative="1" as="geometry">
            <mxPoint x="1630" y="1742" as="sourcePoint" />
            <mxPoint x="1437" y="1890" as="targetPoint" />
          </mxGeometry>
        </mxCell>
        <mxCell id="50ePsgqkP9i3H8P7-D_R-154" value="Relate to" style="shape=rhombus;perimeter=rhombusPerimeter;whiteSpace=wrap;html=1;align=center;" vertex="1" parent="1">
          <mxGeometry x="1773" y="1880" width="120" height="60" as="geometry" />
        </mxCell>
        <mxCell id="50ePsgqkP9i3H8P7-D_R-155" value="" style="endArrow=none;html=1;rounded=0;exitX=0;exitY=0.5;exitDx=0;exitDy=0;entryX=1;entryY=0.5;entryDx=0;entryDy=0;" edge="1" parent="1" source="50ePsgqkP9i3H8P7-D_R-154" target="50ePsgqkP9i3H8P7-D_R-124">
          <mxGeometry width="50" height="50" relative="1" as="geometry">
            <mxPoint x="1788.5" y="1842" as="sourcePoint" />
            <mxPoint x="1657.5" y="1849.5" as="targetPoint" />
          </mxGeometry>
        </mxCell>
        <mxCell id="50ePsgqkP9i3H8P7-D_R-156" value="" style="endArrow=none;html=1;rounded=0;exitX=0;exitY=0.75;exitDx=0;exitDy=0;" edge="1" parent="1" source="50ePsgqkP9i3H8P7-D_R-117">
          <mxGeometry width="50" height="50" relative="1" as="geometry">
            <mxPoint x="1678" y="1847" as="sourcePoint" />
            <mxPoint x="1883" y="1910" as="targetPoint" />
          </mxGeometry>
        </mxCell>
        <mxCell id="50ePsgqkP9i3H8P7-D_R-157" style="edgeStyle=orthogonalEdgeStyle;rounded=0;orthogonalLoop=1;jettySize=auto;html=1;exitX=0.5;exitY=1;exitDx=0;exitDy=0;" edge="1" parent="1" source="50ePsgqkP9i3H8P7-D_R-111" target="50ePsgqkP9i3H8P7-D_R-111">
          <mxGeometry relative="1" as="geometry" />
        </mxCell>
        <mxCell id="50ePsgqkP9i3H8P7-D_R-158" value="" style="endArrow=none;html=1;rounded=0;exitX=0;exitY=0.5;exitDx=0;exitDy=0;" edge="1" parent="1" source="50ePsgqkP9i3H8P7-D_R-151" target="50ePsgqkP9i3H8P7-D_R-63">
          <mxGeometry width="50" height="50" relative="1" as="geometry">
            <mxPoint x="1268" y="1542" as="sourcePoint" />
            <mxPoint x="1229" y="1582" as="targetPoint" />
          </mxGeometry>
        </mxCell>
        <mxCell id="50ePsgqkP9i3H8P7-D_R-159" value="" style="endArrow=none;html=1;rounded=0;exitX=0;exitY=0;exitDx=0;exitDy=0;entryX=1;entryY=0.5;entryDx=0;entryDy=0;" edge="1" parent="1" source="50ePsgqkP9i3H8P7-D_R-108" target="50ePsgqkP9i3H8P7-D_R-151">
          <mxGeometry width="50" height="50" relative="1" as="geometry">
            <mxPoint x="1285" y="1482" as="sourcePoint" />
            <mxPoint x="1246" y="1522" as="targetPoint" />
          </mxGeometry>
        </mxCell>
        <mxCell id="50ePsgqkP9i3H8P7-D_R-160" value="Drive for" style="shape=rhombus;perimeter=rhombusPerimeter;whiteSpace=wrap;html=1;align=center;" vertex="1" parent="1">
          <mxGeometry x="2366" y="1495" width="120" height="60" as="geometry" />
        </mxCell>
        <mxCell id="50ePsgqkP9i3H8P7-D_R-161" value="Owned by" style="shape=rhombus;perimeter=rhombusPerimeter;whiteSpace=wrap;html=1;align=center;" vertex="1" parent="1">
          <mxGeometry x="2674" y="1355" width="120" height="60" as="geometry" />
        </mxCell>
        <mxCell id="50ePsgqkP9i3H8P7-D_R-162" value="" style="endArrow=none;html=1;rounded=0;exitX=0;exitY=0.5;exitDx=0;exitDy=0;entryX=1;entryY=0.75;entryDx=0;entryDy=0;" edge="1" parent="1" source="50ePsgqkP9i3H8P7-D_R-160" target="50ePsgqkP9i3H8P7-D_R-43">
          <mxGeometry width="50" height="50" relative="1" as="geometry">
            <mxPoint x="2268" y="1499" as="sourcePoint" />
            <mxPoint x="2195" y="1528" as="targetPoint" />
          </mxGeometry>
        </mxCell>
        <mxCell id="50ePsgqkP9i3H8P7-D_R-163" value="" style="endArrow=none;html=1;rounded=0;exitX=1;exitY=0.5;exitDx=0;exitDy=0;entryX=0;entryY=0.75;entryDx=0;entryDy=0;" edge="1" parent="1" source="50ePsgqkP9i3H8P7-D_R-160" target="50ePsgqkP9i3H8P7-D_R-94">
          <mxGeometry width="50" height="50" relative="1" as="geometry">
            <mxPoint x="2278" y="1509" as="sourcePoint" />
            <mxPoint x="2205" y="1538" as="targetPoint" />
          </mxGeometry>
        </mxCell>
        <mxCell id="50ePsgqkP9i3H8P7-D_R-164" value="" style="endArrow=none;html=1;rounded=0;exitX=0.5;exitY=1;exitDx=0;exitDy=0;" edge="1" parent="1" source="50ePsgqkP9i3H8P7-D_R-161">
          <mxGeometry width="50" height="50" relative="1" as="geometry">
            <mxPoint x="2288" y="1519" as="sourcePoint" />
            <mxPoint x="2734" y="1495" as="targetPoint" />
          </mxGeometry>
        </mxCell>
        <mxCell id="50ePsgqkP9i3H8P7-D_R-165" value="" style="endArrow=none;html=1;rounded=0;exitX=0.5;exitY=0;exitDx=0;exitDy=0;entryX=0.5;entryY=1;entryDx=0;entryDy=0;" edge="1" parent="1" source="50ePsgqkP9i3H8P7-D_R-161" target="50ePsgqkP9i3H8P7-D_R-31">
          <mxGeometry width="50" height="50" relative="1" as="geometry">
            <mxPoint x="2298" y="1529" as="sourcePoint" />
            <mxPoint x="2225" y="1558" as="targetPoint" />
          </mxGeometry>
        </mxCell>
        <mxCell id="50ePsgqkP9i3H8P7-D_R-166" value="&lt;font style=&quot;font-size: 18px;&quot;&gt;1&lt;/font&gt;" style="text;strokeColor=none;fillColor=none;spacingLeft=4;spacingRight=4;overflow=hidden;rotatable=0;points=[[0,0.5],[1,0.5]];portConstraint=eastwest;fontSize=12;whiteSpace=wrap;html=1;" vertex="1" parent="1">
          <mxGeometry x="2672" y="911" width="40" height="30" as="geometry" />
        </mxCell>
        <mxCell id="50ePsgqkP9i3H8P7-D_R-167" value="&lt;span style=&quot;font-size: 18px;&quot;&gt;N&lt;/span&gt;" style="text;strokeColor=none;fillColor=none;spacingLeft=4;spacingRight=4;overflow=hidden;rotatable=0;points=[[0,0.5],[1,0.5]];portConstraint=eastwest;fontSize=12;whiteSpace=wrap;html=1;" vertex="1" parent="1">
          <mxGeometry x="2237" y="917.5" width="40" height="30" as="geometry" />
        </mxCell>
        <mxCell id="50ePsgqkP9i3H8P7-D_R-168" value="&lt;font style=&quot;font-size: 18px;&quot;&gt;1&lt;/font&gt;" style="text;strokeColor=none;fillColor=none;spacingLeft=4;spacingRight=4;overflow=hidden;rotatable=0;points=[[0,0.5],[1,0.5]];portConstraint=eastwest;fontSize=12;whiteSpace=wrap;html=1;" vertex="1" parent="1">
          <mxGeometry x="2039" y="882.25" width="40" height="30" as="geometry" />
        </mxCell>
        <mxCell id="50ePsgqkP9i3H8P7-D_R-169" value="&lt;font style=&quot;font-size: 18px;&quot;&gt;1&lt;/font&gt;" style="text;strokeColor=none;fillColor=none;spacingLeft=4;spacingRight=4;overflow=hidden;rotatable=0;points=[[0,0.5],[1,0.5]];portConstraint=eastwest;fontSize=12;whiteSpace=wrap;html=1;" vertex="1" parent="1">
          <mxGeometry x="1650" y="892.5" width="40" height="30" as="geometry" />
        </mxCell>
        <mxCell id="50ePsgqkP9i3H8P7-D_R-170" value="&lt;span style=&quot;font-size: 18px;&quot;&gt;N&lt;/span&gt;" style="text;strokeColor=none;fillColor=none;spacingLeft=4;spacingRight=4;overflow=hidden;rotatable=0;points=[[0,0.5],[1,0.5]];portConstraint=eastwest;fontSize=12;whiteSpace=wrap;html=1;" vertex="1" parent="1">
          <mxGeometry x="2144" y="945" width="40" height="30" as="geometry" />
        </mxCell>
        <mxCell id="50ePsgqkP9i3H8P7-D_R-171" value="&lt;font style=&quot;font-size: 18px;&quot;&gt;1&lt;/font&gt;" style="text;strokeColor=none;fillColor=none;spacingLeft=4;spacingRight=4;overflow=hidden;rotatable=0;points=[[0,0.5],[1,0.5]];portConstraint=eastwest;fontSize=12;whiteSpace=wrap;html=1;" vertex="1" parent="1">
          <mxGeometry x="2144" y="1152.5" width="40" height="30" as="geometry" />
        </mxCell>
        <mxCell id="50ePsgqkP9i3H8P7-D_R-172" value="Transpot" style="shape=rhombus;perimeter=rhombusPerimeter;whiteSpace=wrap;html=1;align=center;" vertex="1" parent="1">
          <mxGeometry x="2384" y="1205" width="120" height="60" as="geometry" />
        </mxCell>
        <mxCell id="50ePsgqkP9i3H8P7-D_R-173" value="" style="endArrow=none;html=1;rounded=0;exitX=0;exitY=0.5;exitDx=0;exitDy=0;entryX=1;entryY=0.75;entryDx=0;entryDy=0;" edge="1" parent="1" source="50ePsgqkP9i3H8P7-D_R-172" target="50ePsgqkP9i3H8P7-D_R-70">
          <mxGeometry width="50" height="50" relative="1" as="geometry">
            <mxPoint x="2296" y="1192" as="sourcePoint" />
            <mxPoint x="2197" y="1215" as="targetPoint" />
          </mxGeometry>
        </mxCell>
        <mxCell id="50ePsgqkP9i3H8P7-D_R-174" value="" style="endArrow=none;html=1;rounded=0;exitX=1;exitY=0.5;exitDx=0;exitDy=0;entryX=0;entryY=0.75;entryDx=0;entryDy=0;" edge="1" parent="1" source="50ePsgqkP9i3H8P7-D_R-172" target="50ePsgqkP9i3H8P7-D_R-31">
          <mxGeometry width="50" height="50" relative="1" as="geometry">
            <mxPoint x="2306" y="1202" as="sourcePoint" />
            <mxPoint x="2207" y="1225" as="targetPoint" />
          </mxGeometry>
        </mxCell>
        <mxCell id="50ePsgqkP9i3H8P7-D_R-175" value="&lt;span style=&quot;font-size: 18px;&quot;&gt;N&lt;/span&gt;" style="text;strokeColor=none;fillColor=none;spacingLeft=4;spacingRight=4;overflow=hidden;rotatable=0;points=[[0,0.5],[1,0.5]];portConstraint=eastwest;fontSize=12;whiteSpace=wrap;html=1;" vertex="1" parent="1">
          <mxGeometry x="2214" y="1220" width="40" height="30" as="geometry" />
        </mxCell>
        <mxCell id="50ePsgqkP9i3H8P7-D_R-176" value="&lt;font style=&quot;font-size: 18px;&quot;&gt;1&lt;/font&gt;" style="text;strokeColor=none;fillColor=none;spacingLeft=4;spacingRight=4;overflow=hidden;rotatable=0;points=[[0,0.5],[1,0.5]];portConstraint=eastwest;fontSize=12;whiteSpace=wrap;html=1;" vertex="1" parent="1">
          <mxGeometry x="2604" y="1232.5" width="40" height="30" as="geometry" />
        </mxCell>
        <mxCell id="50ePsgqkP9i3H8P7-D_R-177" value="&lt;span style=&quot;font-size: 18px;&quot;&gt;N&lt;/span&gt;" style="text;strokeColor=none;fillColor=none;spacingLeft=4;spacingRight=4;overflow=hidden;rotatable=0;points=[[0,0.5],[1,0.5]];portConstraint=eastwest;fontSize=12;whiteSpace=wrap;html=1;" vertex="1" parent="1">
          <mxGeometry x="2134" y="1240" width="40" height="30" as="geometry" />
        </mxCell>
        <mxCell id="50ePsgqkP9i3H8P7-D_R-178" value="&lt;font style=&quot;font-size: 18px;&quot;&gt;1&lt;/font&gt;" style="text;strokeColor=none;fillColor=none;spacingLeft=4;spacingRight=4;overflow=hidden;rotatable=0;points=[[0,0.5],[1,0.5]];portConstraint=eastwest;fontSize=12;whiteSpace=wrap;html=1;" vertex="1" parent="1">
          <mxGeometry x="2144" y="1452.5" width="40" height="30" as="geometry" />
        </mxCell>
        <mxCell id="50ePsgqkP9i3H8P7-D_R-179" value="&lt;span style=&quot;font-size: 18px;&quot;&gt;N&lt;/span&gt;" style="text;strokeColor=none;fillColor=none;spacingLeft=4;spacingRight=4;overflow=hidden;rotatable=0;points=[[0,0.5],[1,0.5]];portConstraint=eastwest;fontSize=12;whiteSpace=wrap;html=1;" vertex="1" parent="1">
          <mxGeometry x="1524" y="1255" width="40" height="30" as="geometry" />
        </mxCell>
        <mxCell id="50ePsgqkP9i3H8P7-D_R-180" value="&lt;font style=&quot;font-size: 18px;&quot;&gt;1&lt;/font&gt;" style="text;strokeColor=none;fillColor=none;spacingLeft=4;spacingRight=4;overflow=hidden;rotatable=0;points=[[0,0.5],[1,0.5]];portConstraint=eastwest;fontSize=12;whiteSpace=wrap;html=1;" vertex="1" parent="1">
          <mxGeometry x="1171" y="1512" width="40" height="30" as="geometry" />
        </mxCell>
        <mxCell id="50ePsgqkP9i3H8P7-D_R-181" value="&lt;span style=&quot;font-size: 18px;&quot;&gt;N&lt;/span&gt;" style="text;strokeColor=none;fillColor=none;spacingLeft=4;spacingRight=4;overflow=hidden;rotatable=0;points=[[0,0.5],[1,0.5]];portConstraint=eastwest;fontSize=12;whiteSpace=wrap;html=1;" vertex="1" parent="1">
          <mxGeometry x="1179" y="1592" width="40" height="30" as="geometry" />
        </mxCell>
        <mxCell id="50ePsgqkP9i3H8P7-D_R-182" value="&lt;font style=&quot;font-size: 18px;&quot;&gt;1&lt;/font&gt;" style="text;strokeColor=none;fillColor=none;spacingLeft=4;spacingRight=4;overflow=hidden;rotatable=0;points=[[0,0.5],[1,0.5]];portConstraint=eastwest;fontSize=12;whiteSpace=wrap;html=1;" vertex="1" parent="1">
          <mxGeometry x="1182" y="1712" width="40" height="30" as="geometry" />
        </mxCell>
        <mxCell id="50ePsgqkP9i3H8P7-D_R-183" value="&lt;span style=&quot;font-size: 18px;&quot;&gt;N&lt;/span&gt;" style="text;strokeColor=none;fillColor=none;spacingLeft=4;spacingRight=4;overflow=hidden;rotatable=0;points=[[0,0.5],[1,0.5]];portConstraint=eastwest;fontSize=12;whiteSpace=wrap;html=1;" vertex="1" parent="1">
          <mxGeometry x="1746" y="1642" width="40" height="30" as="geometry" />
        </mxCell>
        <mxCell id="50ePsgqkP9i3H8P7-D_R-184" value="&lt;font style=&quot;font-size: 18px;&quot;&gt;1&lt;/font&gt;" style="text;strokeColor=none;fillColor=none;spacingLeft=4;spacingRight=4;overflow=hidden;rotatable=0;points=[[0,0.5],[1,0.5]];portConstraint=eastwest;fontSize=12;whiteSpace=wrap;html=1;" vertex="1" parent="1">
          <mxGeometry x="1596" y="1850" width="40" height="30" as="geometry" />
        </mxCell>
        <mxCell id="50ePsgqkP9i3H8P7-D_R-185" value="&lt;span style=&quot;font-size: 18px;&quot;&gt;N&lt;/span&gt;" style="text;strokeColor=none;fillColor=none;spacingLeft=4;spacingRight=4;overflow=hidden;rotatable=0;points=[[0,0.5],[1,0.5]];portConstraint=eastwest;fontSize=12;whiteSpace=wrap;html=1;" vertex="1" parent="1">
          <mxGeometry x="1666" y="1878" width="40" height="30" as="geometry" />
        </mxCell>
        <mxCell id="50ePsgqkP9i3H8P7-D_R-186" value="&lt;font style=&quot;font-size: 18px;&quot;&gt;1&lt;/font&gt;" style="text;strokeColor=none;fillColor=none;spacingLeft=4;spacingRight=4;overflow=hidden;rotatable=0;points=[[0,0.5],[1,0.5]];portConstraint=eastwest;fontSize=12;whiteSpace=wrap;html=1;" vertex="1" parent="1">
          <mxGeometry x="2008" y="1872" width="40" height="30" as="geometry" />
        </mxCell>
        <mxCell id="50ePsgqkP9i3H8P7-D_R-187" value="&lt;span style=&quot;font-size: 18px;&quot;&gt;N&lt;/span&gt;" style="text;strokeColor=none;fillColor=none;spacingLeft=4;spacingRight=4;overflow=hidden;rotatable=0;points=[[0,0.5],[1,0.5]];portConstraint=eastwest;fontSize=12;whiteSpace=wrap;html=1;" vertex="1" parent="1">
          <mxGeometry x="1242" y="1577" width="40" height="30" as="geometry" />
        </mxCell>
        <mxCell id="50ePsgqkP9i3H8P7-D_R-188" value="&lt;font style=&quot;font-size: 18px;&quot;&gt;1&lt;/font&gt;" style="text;strokeColor=none;fillColor=none;spacingLeft=4;spacingRight=4;overflow=hidden;rotatable=0;points=[[0,0.5],[1,0.5]];portConstraint=eastwest;fontSize=12;whiteSpace=wrap;html=1;" vertex="1" parent="1">
          <mxGeometry x="1646" y="1592" width="40" height="30" as="geometry" />
        </mxCell>
        <mxCell id="50ePsgqkP9i3H8P7-D_R-189" value="&lt;span style=&quot;font-size: 18px;&quot;&gt;N&lt;/span&gt;" style="text;strokeColor=none;fillColor=none;spacingLeft=4;spacingRight=4;overflow=hidden;rotatable=0;points=[[0,0.5],[1,0.5]];portConstraint=eastwest;fontSize=12;whiteSpace=wrap;html=1;" vertex="1" parent="1">
          <mxGeometry x="2737" y="1262.5" width="40" height="30" as="geometry" />
        </mxCell>
        <mxCell id="50ePsgqkP9i3H8P7-D_R-190" value="&lt;font style=&quot;font-size: 18px;&quot;&gt;1&lt;/font&gt;" style="text;strokeColor=none;fillColor=none;spacingLeft=4;spacingRight=4;overflow=hidden;rotatable=0;points=[[0,0.5],[1,0.5]];portConstraint=eastwest;fontSize=12;whiteSpace=wrap;html=1;" vertex="1" parent="1">
          <mxGeometry x="2737" y="1455" width="40" height="30" as="geometry" />
        </mxCell>
        <mxCell id="50ePsgqkP9i3H8P7-D_R-191" value="&lt;span style=&quot;font-size: 18px;&quot;&gt;N&lt;/span&gt;" style="text;strokeColor=none;fillColor=none;spacingLeft=4;spacingRight=4;overflow=hidden;rotatable=0;points=[[0,0.5],[1,0.5]];portConstraint=eastwest;fontSize=12;whiteSpace=wrap;html=1;" vertex="1" parent="1">
          <mxGeometry x="2214" y="1525" width="40" height="30" as="geometry" />
        </mxCell>
        <mxCell id="50ePsgqkP9i3H8P7-D_R-192" value="&lt;font style=&quot;font-size: 18px;&quot;&gt;1&lt;/font&gt;" style="text;strokeColor=none;fillColor=none;spacingLeft=4;spacingRight=4;overflow=hidden;rotatable=0;points=[[0,0.5],[1,0.5]];portConstraint=eastwest;fontSize=12;whiteSpace=wrap;html=1;" vertex="1" parent="1">
          <mxGeometry x="2604" y="1525" width="40" height="30" as="geometry" />
        </mxCell>
        <mxCell id="50ePsgqkP9i3H8P7-D_R-193" value="Pass through" style="shape=rhombus;perimeter=rhombusPerimeter;whiteSpace=wrap;html=1;align=center;" vertex="1" parent="1">
          <mxGeometry x="1794" y="1199" width="120" height="60" as="geometry" />
        </mxCell>
        <mxCell id="50ePsgqkP9i3H8P7-D_R-194" value="" style="endArrow=none;html=1;rounded=0;exitX=0;exitY=0.5;exitDx=0;exitDy=0;entryX=1;entryY=0.5;entryDx=0;entryDy=0;" edge="1" parent="1" source="50ePsgqkP9i3H8P7-D_R-193">
          <mxGeometry width="50" height="50" relative="1" as="geometry">
            <mxPoint x="1824.5" y="1234" as="sourcePoint" />
            <mxPoint x="1643.5" y="1234" as="targetPoint" />
          </mxGeometry>
        </mxCell>
        <mxCell id="50ePsgqkP9i3H8P7-D_R-195" value="" style="endArrow=none;html=1;rounded=0;exitX=0;exitY=0.5;exitDx=0;exitDy=0;entryX=1;entryY=0.5;entryDx=0;entryDy=0;" edge="1" parent="1" source="50ePsgqkP9i3H8P7-D_R-70" target="50ePsgqkP9i3H8P7-D_R-193">
          <mxGeometry width="50" height="50" relative="1" as="geometry">
            <mxPoint x="1804" y="1250" as="sourcePoint" />
            <mxPoint x="1653.5" y="1244" as="targetPoint" />
          </mxGeometry>
        </mxCell>
        <mxCell id="50ePsgqkP9i3H8P7-D_R-196" value="Apply" style="shape=rhombus;perimeter=rhombusPerimeter;whiteSpace=wrap;html=1;align=center;" vertex="1" parent="1">
          <mxGeometry x="1629" y="1390" width="120" height="60" as="geometry" />
        </mxCell>
        <mxCell id="50ePsgqkP9i3H8P7-D_R-197" value="" style="endArrow=none;html=1;rounded=0;exitX=0;exitY=0;exitDx=0;exitDy=0;entryX=0.5;entryY=1;entryDx=0;entryDy=0;" edge="1" parent="1" source="50ePsgqkP9i3H8P7-D_R-196" target="50ePsgqkP9i3H8P7-D_R-54">
          <mxGeometry width="50" height="50" relative="1" as="geometry">
            <mxPoint x="1416" y="1398" as="sourcePoint" />
            <mxPoint x="1603" y="1266" as="targetPoint" />
          </mxGeometry>
        </mxCell>
        <mxCell id="50ePsgqkP9i3H8P7-D_R-198" value="" style="endArrow=none;html=1;rounded=0;entryX=0.5;entryY=0;entryDx=0;entryDy=0;" edge="1" parent="1" source="50ePsgqkP9i3H8P7-D_R-196" target="50ePsgqkP9i3H8P7-D_R-108">
          <mxGeometry width="50" height="50" relative="1" as="geometry">
            <mxPoint x="1426" y="1408" as="sourcePoint" />
            <mxPoint x="1613" y="1276" as="targetPoint" />
          </mxGeometry>
        </mxCell>
        <mxCell id="50ePsgqkP9i3H8P7-D_R-199" value="&lt;span style=&quot;font-size: 18px;&quot;&gt;N&lt;/span&gt;" style="text;strokeColor=none;fillColor=none;spacingLeft=4;spacingRight=4;overflow=hidden;rotatable=0;points=[[0,0.5],[1,0.5]];portConstraint=eastwest;fontSize=12;whiteSpace=wrap;html=1;" vertex="1" parent="1">
          <mxGeometry x="1709" y="1550" width="40" height="30" as="geometry" />
        </mxCell>
        <mxCell id="50ePsgqkP9i3H8P7-D_R-200" value="&lt;font style=&quot;font-size: 18px;&quot;&gt;1&lt;/font&gt;" style="text;strokeColor=none;fillColor=none;spacingLeft=4;spacingRight=4;overflow=hidden;rotatable=0;points=[[0,0.5],[1,0.5]];portConstraint=eastwest;fontSize=12;whiteSpace=wrap;html=1;" vertex="1" parent="1">
          <mxGeometry x="1573" y="1270" width="40" height="30" as="geometry" />
        </mxCell>
        <mxCell id="50ePsgqkP9i3H8P7-D_R-201" value="&lt;font style=&quot;font-size: 18px;&quot;&gt;1&lt;/font&gt;" style="text;strokeColor=none;fillColor=none;spacingLeft=4;spacingRight=4;overflow=hidden;rotatable=0;points=[[0,0.5],[1,0.5]];portConstraint=eastwest;fontSize=12;whiteSpace=wrap;html=1;" vertex="1" parent="1">
          <mxGeometry x="1678" y="1235" width="40" height="30" as="geometry" />
        </mxCell>
        <mxCell id="50ePsgqkP9i3H8P7-D_R-202" value="&lt;span style=&quot;font-size: 18px;&quot;&gt;N&lt;/span&gt;" style="text;strokeColor=none;fillColor=none;spacingLeft=4;spacingRight=4;overflow=hidden;rotatable=0;points=[[0,0.5],[1,0.5]];portConstraint=eastwest;fontSize=12;whiteSpace=wrap;html=1;" vertex="1" parent="1">
          <mxGeometry x="2034.5" y="1214" width="40" height="30" as="geometry" />
        </mxCell>
        <mxCell id="50ePsgqkP9i3H8P7-D_R-203" value="&lt;span style=&quot;font-size:12.0pt;line-height:115%;&lt;br/&gt;font-family:&amp;quot;Arial&amp;quot;,sans-serif;mso-fareast-font-family:Calibri;mso-fareast-theme-font:&lt;br/&gt;minor-latin;mso-ansi-language:EN-US;mso-fareast-language:EN-US;mso-bidi-language:&lt;br/&gt;AR-SA&quot;&gt;country_code&lt;/span&gt;" style="ellipse;whiteSpace=wrap;html=1;align=center;" vertex="1" parent="1">
          <mxGeometry x="2788" y="1772" width="110" height="40" as="geometry" />
        </mxCell>
        <mxCell id="50ePsgqkP9i3H8P7-D_R-204" value="&lt;span style=&quot;font-size:12.0pt;line-height:115%;&lt;br/&gt;font-family:&amp;quot;Arial&amp;quot;,sans-serif;mso-fareast-font-family:Calibri;mso-fareast-theme-font:&lt;br/&gt;minor-latin;mso-ansi-language:EN-US;mso-fareast-language:EN-US;mso-bidi-language:&lt;br/&gt;AR-SA&quot;&gt;country_name&lt;/span&gt;" style="ellipse;whiteSpace=wrap;html=1;align=center;" vertex="1" parent="1">
          <mxGeometry x="2528" y="1918.25" width="100" height="40" as="geometry" />
        </mxCell>
        <mxCell id="50ePsgqkP9i3H8P7-D_R-205" value="&lt;span style=&quot;font-size: 16px;&quot;&gt;country_id&lt;/span&gt;" style="ellipse;whiteSpace=wrap;html=1;align=center;fontStyle=4;" vertex="1" parent="1">
          <mxGeometry x="2734" y="1940" width="100" height="40" as="geometry" />
        </mxCell>
        <mxCell id="50ePsgqkP9i3H8P7-D_R-206" value="" style="endArrow=none;html=1;rounded=0;exitX=1;exitY=0;exitDx=0;exitDy=0;entryX=0;entryY=1;entryDx=0;entryDy=0;" edge="1" parent="1" source="50ePsgqkP9i3H8P7-D_R-204">
          <mxGeometry width="50" height="50" relative="1" as="geometry">
            <mxPoint x="2635" y="1966.25" as="sourcePoint" />
            <mxPoint x="2679" y="1888.25" as="targetPoint" />
          </mxGeometry>
        </mxCell>
        <mxCell id="50ePsgqkP9i3H8P7-D_R-207" value="" style="endArrow=none;html=1;rounded=0;entryX=0.75;entryY=1;entryDx=0;entryDy=0;" edge="1" parent="1" source="50ePsgqkP9i3H8P7-D_R-205" target="50ePsgqkP9i3H8P7-D_R-209">
          <mxGeometry width="50" height="50" relative="1" as="geometry">
            <mxPoint x="2645" y="1976.25" as="sourcePoint" />
            <mxPoint x="2679" y="1848.25" as="targetPoint" />
          </mxGeometry>
        </mxCell>
        <mxCell id="50ePsgqkP9i3H8P7-D_R-208" value="" style="endArrow=none;html=1;rounded=0;entryX=1;entryY=0;entryDx=0;entryDy=0;" edge="1" parent="1" source="50ePsgqkP9i3H8P7-D_R-203" target="50ePsgqkP9i3H8P7-D_R-209">
          <mxGeometry width="50" height="50" relative="1" as="geometry">
            <mxPoint x="2655" y="1986.25" as="sourcePoint" />
            <mxPoint x="2788" y="1868.25" as="targetPoint" />
          </mxGeometry>
        </mxCell>
        <mxCell id="50ePsgqkP9i3H8P7-D_R-209" value="Country" style="whiteSpace=wrap;html=1;align=center;" vertex="1" parent="1">
          <mxGeometry x="2679" y="1851.75" width="109" height="40" as="geometry" />
        </mxCell>
        <mxCell id="50ePsgqkP9i3H8P7-D_R-210" value="Operates_in" style="shape=rhombus;perimeter=rhombusPerimeter;whiteSpace=wrap;html=1;align=center;" vertex="1" parent="1">
          <mxGeometry x="2315" y="1852" width="120" height="60" as="geometry" />
        </mxCell>
        <mxCell id="50ePsgqkP9i3H8P7-D_R-211" value="" style="endArrow=none;html=1;rounded=0;exitX=0;exitY=0.5;exitDx=0;exitDy=0;entryX=1;entryY=0.5;entryDx=0;entryDy=0;" edge="1" parent="1" source="50ePsgqkP9i3H8P7-D_R-210" target="50ePsgqkP9i3H8P7-D_R-117">
          <mxGeometry width="50" height="50" relative="1" as="geometry">
            <mxPoint x="2376" y="1535" as="sourcePoint" />
            <mxPoint x="2205" y="1538" as="targetPoint" />
          </mxGeometry>
        </mxCell>
        <mxCell id="50ePsgqkP9i3H8P7-D_R-212" value="" style="endArrow=none;html=1;rounded=0;exitX=1;exitY=0.5;exitDx=0;exitDy=0;entryX=0;entryY=0.5;entryDx=0;entryDy=0;" edge="1" parent="1" source="50ePsgqkP9i3H8P7-D_R-210" target="50ePsgqkP9i3H8P7-D_R-209">
          <mxGeometry width="50" height="50" relative="1" as="geometry">
            <mxPoint x="2306" y="1892" as="sourcePoint" />
            <mxPoint x="2178" y="1903" as="targetPoint" />
          </mxGeometry>
        </mxCell>
        <mxCell id="50ePsgqkP9i3H8P7-D_R-213" value="Based_in" style="shape=rhombus;perimeter=rhombusPerimeter;whiteSpace=wrap;html=1;align=center;" vertex="1" parent="1">
          <mxGeometry x="2687" y="1670" width="120" height="60" as="geometry" />
        </mxCell>
        <mxCell id="50ePsgqkP9i3H8P7-D_R-214" value="" style="endArrow=none;html=1;rounded=0;exitX=0.5;exitY=0;exitDx=0;exitDy=0;entryX=0.5;entryY=1;entryDx=0;entryDy=0;" edge="1" parent="1" source="50ePsgqkP9i3H8P7-D_R-209" target="50ePsgqkP9i3H8P7-D_R-213">
          <mxGeometry width="50" height="50" relative="1" as="geometry">
            <mxPoint x="2445" y="1892" as="sourcePoint" />
            <mxPoint x="2689" y="1882" as="targetPoint" />
          </mxGeometry>
        </mxCell>
        <mxCell id="50ePsgqkP9i3H8P7-D_R-215" value="" style="endArrow=none;html=1;rounded=0;exitX=0.5;exitY=1;exitDx=0;exitDy=0;entryX=0.5;entryY=0;entryDx=0;entryDy=0;" edge="1" parent="1" source="50ePsgqkP9i3H8P7-D_R-94" target="50ePsgqkP9i3H8P7-D_R-213">
          <mxGeometry width="50" height="50" relative="1" as="geometry">
            <mxPoint x="2455" y="1902" as="sourcePoint" />
            <mxPoint x="2699" y="1892" as="targetPoint" />
          </mxGeometry>
        </mxCell>
        <mxCell id="50ePsgqkP9i3H8P7-D_R-216" value="Registered_in" style="shape=rhombus;perimeter=rhombusPerimeter;whiteSpace=wrap;html=1;align=center;" vertex="1" parent="1">
          <mxGeometry x="3014" y="1440" width="120" height="60" as="geometry" />
        </mxCell>
        <mxCell id="50ePsgqkP9i3H8P7-D_R-217" value="" style="endArrow=none;html=1;rounded=0;entryX=1;entryY=0.5;entryDx=0;entryDy=0;" edge="1" parent="1" target="50ePsgqkP9i3H8P7-D_R-209">
          <mxGeometry width="50" height="50" relative="1" as="geometry">
            <mxPoint x="3067" y="1873" as="sourcePoint" />
            <mxPoint x="2757" y="1740" as="targetPoint" />
          </mxGeometry>
        </mxCell>
        <mxCell id="50ePsgqkP9i3H8P7-D_R-218" value="" style="endArrow=none;html=1;rounded=0;exitX=0.5;exitY=1;exitDx=0;exitDy=0;" edge="1" parent="1" source="50ePsgqkP9i3H8P7-D_R-216">
          <mxGeometry width="50" height="50" relative="1" as="geometry">
            <mxPoint x="3082" y="1885" as="sourcePoint" />
            <mxPoint x="3068" y="1874" as="targetPoint" />
          </mxGeometry>
        </mxCell>
        <mxCell id="50ePsgqkP9i3H8P7-D_R-219" value="" style="endArrow=none;html=1;rounded=0;exitX=0.5;exitY=0;exitDx=0;exitDy=0;" edge="1" parent="1" source="50ePsgqkP9i3H8P7-D_R-216">
          <mxGeometry width="50" height="50" relative="1" as="geometry">
            <mxPoint x="3084" y="1510" as="sourcePoint" />
            <mxPoint x="3074" y="1227" as="targetPoint" />
          </mxGeometry>
        </mxCell>
        <mxCell id="50ePsgqkP9i3H8P7-D_R-220" value="" style="endArrow=none;html=1;rounded=0;entryX=1;entryY=0.5;entryDx=0;entryDy=0;" edge="1" parent="1" target="50ePsgqkP9i3H8P7-D_R-31">
          <mxGeometry width="50" height="50" relative="1" as="geometry">
            <mxPoint x="3074" y="1227" as="sourcePoint" />
            <mxPoint x="3084" y="1241" as="targetPoint" />
          </mxGeometry>
        </mxCell>
        <mxCell id="50ePsgqkP9i3H8P7-D_R-221" value="Citizen_of" style="shape=rhombus;perimeter=rhombusPerimeter;whiteSpace=wrap;html=1;align=center;" vertex="1" parent="1">
          <mxGeometry x="2397" y="1702" width="120" height="60" as="geometry" />
        </mxCell>
        <mxCell id="50ePsgqkP9i3H8P7-D_R-222" value="" style="endArrow=none;html=1;rounded=0;exitX=0;exitY=0;exitDx=0;exitDy=0;entryX=0.5;entryY=1;entryDx=0;entryDy=0;" edge="1" parent="1" source="50ePsgqkP9i3H8P7-D_R-221" target="50ePsgqkP9i3H8P7-D_R-43">
          <mxGeometry width="50" height="50" relative="1" as="geometry">
            <mxPoint x="2325" y="1892" as="sourcePoint" />
            <mxPoint x="2178" y="1903" as="targetPoint" />
          </mxGeometry>
        </mxCell>
        <mxCell id="50ePsgqkP9i3H8P7-D_R-223" value="" style="endArrow=none;html=1;rounded=0;entryX=0.25;entryY=0;entryDx=0;entryDy=0;exitX=1;exitY=1;exitDx=0;exitDy=0;" edge="1" parent="1" source="50ePsgqkP9i3H8P7-D_R-221" target="50ePsgqkP9i3H8P7-D_R-209">
          <mxGeometry width="50" height="50" relative="1" as="geometry">
            <mxPoint x="2474" y="1755" as="sourcePoint" />
            <mxPoint x="2145" y="1548" as="targetPoint" />
          </mxGeometry>
        </mxCell>
        <mxCell id="50ePsgqkP9i3H8P7-D_R-224" value="" style="endArrow=none;html=1;rounded=0;entryX=1;entryY=1;entryDx=0;entryDy=0;" edge="1" parent="1" target="50ePsgqkP9i3H8P7-D_R-209">
          <mxGeometry width="50" height="50" relative="1" as="geometry">
            <mxPoint x="3177" y="1896" as="sourcePoint" />
            <mxPoint x="2798" y="1882" as="targetPoint" />
          </mxGeometry>
        </mxCell>
        <mxCell id="50ePsgqkP9i3H8P7-D_R-225" value="" style="endArrow=none;html=1;rounded=0;exitX=0.5;exitY=1;exitDx=0;exitDy=0;" edge="1" parent="1" source="50ePsgqkP9i3H8P7-D_R-226">
          <mxGeometry width="50" height="50" relative="1" as="geometry">
            <mxPoint x="3177" y="1542" as="sourcePoint" />
            <mxPoint x="3177" y="1897" as="targetPoint" />
          </mxGeometry>
        </mxCell>
        <mxCell id="50ePsgqkP9i3H8P7-D_R-226" value="Reside_in" style="shape=rhombus;perimeter=rhombusPerimeter;whiteSpace=wrap;html=1;align=center;" vertex="1" parent="1">
          <mxGeometry x="3117" y="1364" width="120" height="60" as="geometry" />
        </mxCell>
        <mxCell id="50ePsgqkP9i3H8P7-D_R-227" value="" style="endArrow=none;html=1;rounded=0;entryX=1;entryY=0.5;entryDx=0;entryDy=0;" edge="1" parent="1" target="50ePsgqkP9i3H8P7-D_R-18">
          <mxGeometry width="50" height="50" relative="1" as="geometry">
            <mxPoint x="3169" y="908" as="sourcePoint" />
            <mxPoint x="2787" y="1233" as="targetPoint" />
          </mxGeometry>
        </mxCell>
        <mxCell id="50ePsgqkP9i3H8P7-D_R-228" value="" style="endArrow=none;html=1;rounded=0;exitX=0.5;exitY=0;exitDx=0;exitDy=0;" edge="1" parent="1" source="50ePsgqkP9i3H8P7-D_R-226">
          <mxGeometry width="50" height="50" relative="1" as="geometry">
            <mxPoint x="3084" y="1450" as="sourcePoint" />
            <mxPoint x="3168" y="908" as="targetPoint" />
          </mxGeometry>
        </mxCell>
        <mxCell id="50ePsgqkP9i3H8P7-D_R-229" value="&lt;span style=&quot;font-size: 18px;&quot;&gt;N&lt;/span&gt;" style="text;strokeColor=none;fillColor=none;spacingLeft=4;spacingRight=4;overflow=hidden;rotatable=0;points=[[0,0.5],[1,0.5]];portConstraint=eastwest;fontSize=12;whiteSpace=wrap;html=1;" vertex="1" parent="1">
          <mxGeometry x="2877" y="914.75" width="40" height="30" as="geometry" />
        </mxCell>
        <mxCell id="50ePsgqkP9i3H8P7-D_R-230" value="&lt;font style=&quot;font-size: 18px;&quot;&gt;1&lt;/font&gt;" style="text;strokeColor=none;fillColor=none;spacingLeft=4;spacingRight=4;overflow=hidden;rotatable=0;points=[[0,0.5],[1,0.5]];portConstraint=eastwest;fontSize=12;whiteSpace=wrap;html=1;" vertex="1" parent="1">
          <mxGeometry x="2797" y="1891.75" width="40" height="30" as="geometry" />
        </mxCell>
        <mxCell id="50ePsgqkP9i3H8P7-D_R-231" value="&lt;span style=&quot;font-size: 18px;&quot;&gt;N&lt;/span&gt;" style="text;strokeColor=none;fillColor=none;spacingLeft=4;spacingRight=4;overflow=hidden;rotatable=0;points=[[0,0.5],[1,0.5]];portConstraint=eastwest;fontSize=12;whiteSpace=wrap;html=1;" vertex="1" parent="1">
          <mxGeometry x="2762" y="1547" width="40" height="30" as="geometry" />
        </mxCell>
        <mxCell id="50ePsgqkP9i3H8P7-D_R-232" value="&lt;font style=&quot;font-size: 18px;&quot;&gt;1&lt;/font&gt;" style="text;strokeColor=none;fillColor=none;spacingLeft=4;spacingRight=4;overflow=hidden;rotatable=0;points=[[0,0.5],[1,0.5]];portConstraint=eastwest;fontSize=12;whiteSpace=wrap;html=1;" vertex="1" parent="1">
          <mxGeometry x="2737" y="1806" width="40" height="30" as="geometry" />
        </mxCell>
        <mxCell id="50ePsgqkP9i3H8P7-D_R-233" value="&lt;font style=&quot;font-size: 18px;&quot;&gt;1&lt;/font&gt;" style="text;strokeColor=none;fillColor=none;spacingLeft=4;spacingRight=4;overflow=hidden;rotatable=0;points=[[0,0.5],[1,0.5]];portConstraint=eastwest;fontSize=12;whiteSpace=wrap;html=1;" vertex="1" parent="1">
          <mxGeometry x="2616" y="1873" width="40" height="30" as="geometry" />
        </mxCell>
        <mxCell id="50ePsgqkP9i3H8P7-D_R-234" value="&lt;span style=&quot;font-size: 18px;&quot;&gt;N&lt;/span&gt;" style="text;strokeColor=none;fillColor=none;spacingLeft=4;spacingRight=4;overflow=hidden;rotatable=0;points=[[0,0.5],[1,0.5]];portConstraint=eastwest;fontSize=12;whiteSpace=wrap;html=1;" vertex="1" parent="1">
          <mxGeometry x="2178" y="1892" width="40" height="30" as="geometry" />
        </mxCell>
        <mxCell id="50ePsgqkP9i3H8P7-D_R-235" value="&lt;span style=&quot;font-size: 18px;&quot;&gt;N&lt;/span&gt;" style="text;strokeColor=none;fillColor=none;spacingLeft=4;spacingRight=4;overflow=hidden;rotatable=0;points=[[0,0.5],[1,0.5]];portConstraint=eastwest;fontSize=12;whiteSpace=wrap;html=1;" vertex="1" parent="1">
          <mxGeometry x="2128" y="1550" width="40" height="30" as="geometry" />
        </mxCell>
        <mxCell id="50ePsgqkP9i3H8P7-D_R-236" value="&lt;font style=&quot;font-size: 18px;&quot;&gt;1&lt;/font&gt;" style="text;strokeColor=none;fillColor=none;spacingLeft=4;spacingRight=4;overflow=hidden;rotatable=0;points=[[0,0.5],[1,0.5]];portConstraint=eastwest;fontSize=12;whiteSpace=wrap;html=1;" vertex="1" parent="1">
          <mxGeometry x="2656" y="1806" width="40" height="30" as="geometry" />
        </mxCell>
        <mxCell id="50ePsgqkP9i3H8P7-D_R-237" value="&lt;span style=&quot;font-size: 18px;&quot;&gt;N&lt;/span&gt;" style="text;strokeColor=none;fillColor=none;spacingLeft=4;spacingRight=4;overflow=hidden;rotatable=0;points=[[0,0.5],[1,0.5]];portConstraint=eastwest;fontSize=12;whiteSpace=wrap;html=1;" vertex="1" parent="1">
          <mxGeometry x="2817" y="1193" width="40" height="30" as="geometry" />
        </mxCell>
        <mxCell id="50ePsgqkP9i3H8P7-D_R-238" value="&lt;font style=&quot;font-size: 18px;&quot;&gt;1&lt;/font&gt;" style="text;strokeColor=none;fillColor=none;spacingLeft=4;spacingRight=4;overflow=hidden;rotatable=0;points=[[0,0.5],[1,0.5]];portConstraint=eastwest;fontSize=12;whiteSpace=wrap;html=1;" vertex="1" parent="1">
          <mxGeometry x="2812" y="1836" width="40" height="30" as="geometry" />
        </mxCell>
      </root>
    </mxGraphModel>
  </diagram>
</mxfile>
